<?xml version="1.0" encoding="utf-8"?>
<!-- Generator: Adobe Illustrator 16.0.0, SVG Export Plug-In . SVG Version: 6.00 Build 0)  -->
<!DOCTYPE svg PUBLIC "-//W3C//DTD SVG 1.0//EN" "http://www.w3.org/TR/2001/REC-SVG-20010904/DTD/svg10.dtd">
<svg version="1.0" id="Layer_1" xmlns="http://www.w3.org/2000/svg" xmlns:xlink="http://www.w3.org/1999/xlink" x="0px" y="0px"
	 width="64px" height="64px" viewBox="0 0 64 64" enable-background="new 0 0 64 64" xml:space="preserve">
<path fill="#231F20" d="M60,52h-6V24h6c1.814,0,3.4-1.221,3.865-2.973c0.467-1.754-0.307-3.6-1.881-4.5l-28-16
	C33.369,0.176,32.684,0,32,0s-1.369,0.176-1.984,0.527l-28,16c-1.574,0.9-2.348,2.746-1.881,4.5C0.6,22.779,2.186,24,4,24h6v28H4
	c-2.209,0-4,1.791-4,4v8h64v-8C64,53.791,62.209,52,60,52z M6,20c-1.219,0-0.551-0.828-0.025-1.129
	C6.436,18.607,26.051,7.4,30.916,4.619c0.689-0.395,1.449-0.41,2.094-0.043c4.721,2.697,24.404,13.943,25,14.285
	C58.688,19.25,59.312,20,58,20S7.219,20,6,20z M50,24v28h-4V24H50z M42,24v28h-4V24H42z M34,24v28h-4V24H34z M26,24v28h-4V24H26z
	 M18,24v28h-4V24H18z M60,60H4v-2c0-1.105,0.895-2,2-2h52c1.105,0,2,0.895,2,2V60z"/>
</svg>
