<?xml version="1.0" encoding="utf-8"?>
<!-- Generator: Adobe Illustrator 16.0.0, SVG Export Plug-In . SVG Version: 6.00 Build 0)  -->
<!DOCTYPE svg PUBLIC "-//W3C//DTD SVG 1.0//EN" "http://www.w3.org/TR/2001/REC-SVG-20010904/DTD/svg10.dtd">
<svg version="1.0" id="Layer_1" xmlns="http://www.w3.org/2000/svg" xmlns:xlink="http://www.w3.org/1999/xlink" x="0px" y="0px"
	 width="64px" height="64px" viewBox="0 0 64 64" enable-background="new 0 0 64 64" xml:space="preserve">
<path fill="#231F20" d="M54.627,9.373c-12.496-12.498-32.756-12.498-45.254,0c-12.498,12.498-12.498,32.758,0,45.254
	c12.496,12.498,32.758,12.498,45.254,0C67.125,42.129,67.125,21.871,54.627,9.373z M59.922,33.625
	c-6.311-0.65-12.807,1.193-17.936,5.535l-7.158-7.158l18.312-18.314C58.074,19.371,60.332,26.553,59.922,33.625z M41.988,44.818
	l8.324,8.324c-3.748,3.25-8.139,5.359-12.73,6.287C37.072,54.301,38.543,49.031,41.988,44.818z M44.818,41.988
	c4.209-3.445,9.48-4.916,14.613-4.406c-0.932,4.596-3.039,8.984-6.291,12.73L44.818,41.988z M50.312,10.859L32,29.174l-7.158-7.162
	c4.34-5.127,6.184-11.621,5.533-17.934C37.447,3.67,44.629,5.926,50.312,10.859z M19.184,22.012
	c-4.213,3.445-9.484,4.916-14.615,4.408c0.932-4.596,3.039-8.986,6.291-12.732L19.184,22.012z M13.688,10.859
	c3.746-3.252,8.137-5.357,12.73-6.289c0.51,5.129-0.961,10.402-4.406,14.613L13.688,10.859z M4.078,30.375
	c6.311,0.65,12.807-1.193,17.934-5.533l7.16,7.16L10.859,50.312C5.926,44.629,3.668,37.447,4.078,30.375z M13.688,53.141L32,34.828
	l7.158,7.16c-4.338,5.127-6.184,11.623-5.533,17.936C26.553,60.334,19.371,58.074,13.688,53.141z"/>
</svg>
