<?xml version="1.0" encoding="utf-8"?>
<!-- Generator: Adobe Illustrator 16.0.0, SVG Export Plug-In . SVG Version: 6.00 Build 0)  -->
<!DOCTYPE svg PUBLIC "-//W3C//DTD SVG 1.0//EN" "http://www.w3.org/TR/2001/REC-SVG-20010904/DTD/svg10.dtd">
<svg version="1.0" id="Layer_1" xmlns="http://www.w3.org/2000/svg" xmlns:xlink="http://www.w3.org/1999/xlink" x="0px" y="0px"
	 width="64px" height="64px" viewBox="0 0 64 64" enable-background="new 0 0 64 64" xml:space="preserve">
<g>
	<path fill="#231F20" d="M60,22h-4v-6c0-2.211-1.789-4-4-4H4c-2.211,0-4,1.789-4,4v32c0,2.211,1.789,4,4,4h48c2.211,0,4-1.789,4-4
		v-6h4c2.211,0,4-1.789,4-4V26C64,23.789,62.211,22,60,22z M60,36c0,1.105-0.895,2-2,2h-4c-1.105,0-2,0.895-2,2v6
		c0,1.105-0.895,2-2,2H6c-1.105,0-2-0.895-2-2V18c0-1.105,0.895-2,2-2h44c1.105,0,2,0.895,2,2v6c0,1.105,0.895,2,2,2h4
		c1.105,0,2,0.895,2,2V36z"/>
	<path fill="#231F20" d="M8,44h28l8-24H8V44z M12,24h26.451l-5.334,16H12V24z"/>
</g>
</svg>
