<?xml version="1.0" encoding="utf-8"?>
<!-- Generator: Adobe Illustrator 16.0.0, SVG Export Plug-In . SVG Version: 6.00 Build 0)  -->
<!DOCTYPE svg PUBLIC "-//W3C//DTD SVG 1.0//EN" "http://www.w3.org/TR/2001/REC-SVG-20010904/DTD/svg10.dtd">
<svg version="1.0" id="Layer_1" xmlns="http://www.w3.org/2000/svg" xmlns:xlink="http://www.w3.org/1999/xlink" x="0px" y="0px"
	 width="64px" height="64px" viewBox="0 0 64 64" enable-background="new 0 0 64 64" xml:space="preserve">
<path fill="#231F20" d="M58,51.717c-3.443-0.893-6-3.994-6-7.717V24c0-8.996-5.941-16.602-14.113-19.117C37.363,2.105,34.932,0,32,0
	s-5.363,2.105-5.887,4.883C17.941,7.398,12,15.004,12,24v20c0,3.723-2.557,6.824-6,7.717c0,0-2,0.564-2,2.283c0,1.105,0.895,2,2,2
	h18c0,4.418,3.582,8,8,8s8-3.582,8-8h18c1.105,0,2-0.895,2-2C60,52.25,58,51.717,58,51.717z M32,60c-2.209,0-4-1.791-4-4h8
	C36,58.209,34.209,60,32,60z M12.922,52C14.854,49.857,16,47.035,16,44V24c0-6.99,4.514-12.934,10.773-15.105
	c1.031-0.359,2.113-0.605,3.227-0.75V6c0-1.105,0.895-2,2-2s2,0.895,2,2v2.145c1.113,0.145,2.195,0.391,3.227,0.75
	C43.486,11.066,48,17.01,48,24v20c0,3.035,1.146,5.859,3.074,8H12.922z"/>
</svg>
