<?xml version="1.0" encoding="utf-8"?>
<!-- Generator: Adobe Illustrator 16.0.0, SVG Export Plug-In . SVG Version: 6.00 Build 0)  -->
<!DOCTYPE svg PUBLIC "-//W3C//DTD SVG 1.0//EN" "http://www.w3.org/TR/2001/REC-SVG-20010904/DTD/svg10.dtd">
<svg version="1.0" id="Layer_1" xmlns="http://www.w3.org/2000/svg" xmlns:xlink="http://www.w3.org/1999/xlink" x="0px" y="0px"
	 width="64px" height="64px" viewBox="0 0 64 64" enable-background="new 0 0 64 64" xml:space="preserve">
<g>
	<path fill="#231F20" d="M56,0H8C5.789,0,4,1.789,4,4v52c0,4.418,3.582,8,8,8h44c2.211,0,4-1.789,4-4V4C60,1.789,58.211,0,56,0z
		 M8,6c0-1.105,0.895-2,2-2h2v44c-1.465,0-2.818,0.422-4,1.109V6z M56,58c0,1.105-0.895,2-2,2H12c-2.209,0-4-1.791-4-4s1.791-4,4-4
		h44V58z M56,48H16V4h38c1.105,0,2,0.895,2,2V48z"/>
	<path fill="#231F20" d="M26,20h8c1.105,0,2-0.895,2-2s-0.895-2-2-2h-8c-1.105,0-2,0.895-2,2S24.895,20,26,20z"/>
	<path fill="#231F20" d="M46,24H26c-1.105,0-2,0.895-2,2s0.895,2,2,2h20c1.105,0,2-0.895,2-2S47.105,24,46,24z"/>
</g>
</svg>
