<?xml version="1.0" encoding="utf-8"?>
<!-- Generator: Adobe Illustrator 16.0.0, SVG Export Plug-In . SVG Version: 6.00 Build 0)  -->
<!DOCTYPE svg PUBLIC "-//W3C//DTD SVG 1.0//EN" "http://www.w3.org/TR/2001/REC-SVG-20010904/DTD/svg10.dtd">
<svg version="1.0" id="Layer_1" xmlns="http://www.w3.org/2000/svg" xmlns:xlink="http://www.w3.org/1999/xlink" x="0px" y="0px"
	 width="64px" height="64px" viewBox="0 0 64 64" enable-background="new 0 0 64 64" xml:space="preserve">
<g>
	<path fill="#231F20" d="M60,0H4C1.789,0,0,1.789,0,4v56c0,2.211,1.789,4,4,4h56c2.211,0,4-1.789,4-4V4C64,1.789,62.211,0,60,0z
		 M60,58c0,1.105-0.895,2-2,2H6c-1.105,0-2-0.895-2-2V20h56V58z M60,16H4V6c0-1.105,0.895-2,2-2h52c1.105,0,2,0.895,2,2V16z"/>
	<path fill="#231F20" d="M30,8H18c-1.105,0-2,0.895-2,2s0.895,2,2,2h12c1.105,0,2-0.895,2-2S31.105,8,30,8z"/>
	<circle fill="#231F20" cx="10" cy="10" r="2"/>
	<path fill="#231F20" d="M34,50h16c1.105,0,2-0.895,2-2V32c0-1.105-0.895-2-2-2H34c-1.105,0-2,0.895-2,2v16
		C32,49.105,32.895,50,34,50z M36,34h12v12H36V34z"/>
	<path fill="#231F20" d="M14,34h12c1.105,0,2-0.895,2-2s-0.895-2-2-2H14c-1.105,0-2,0.895-2,2S12.895,34,14,34z"/>
	<path fill="#231F20" d="M14,42h12c1.105,0,2-0.895,2-2s-0.895-2-2-2H14c-1.105,0-2,0.895-2,2S12.895,42,14,42z"/>
	<path fill="#231F20" d="M14,50h12c1.105,0,2-0.895,2-2s-0.895-2-2-2H14c-1.105,0-2,0.895-2,2S12.895,50,14,50z"/>
</g>
</svg>
