<?xml version="1.0" encoding="utf-8"?>
<!-- Generator: Adobe Illustrator 16.0.0, SVG Export Plug-In . SVG Version: 6.00 Build 0)  -->
<!DOCTYPE svg PUBLIC "-//W3C//DTD SVG 1.0//EN" "http://www.w3.org/TR/2001/REC-SVG-20010904/DTD/svg10.dtd">
<svg version="1.0" id="Layer_1" xmlns="http://www.w3.org/2000/svg" xmlns:xlink="http://www.w3.org/1999/xlink" x="0px" y="0px"
	 width="64px" height="64px" viewBox="0 0 64 64" enable-background="new 0 0 64 64" xml:space="preserve">
<path fill="#231F20" d="M61.038,2.99c-3.974-3.97-10.419-3.97-14.388,0L24.194,25.436c-4.142-0.672-8.936,0.301-13.522,4.884
	C4.28,36.707,3.727,42.732,3.186,48.562c-0.365,3.95-0.738,8.033-2.971,12.495c-0.391,0.785-0.238,1.73,0.381,2.348
	c0.621,0.621,1.567,0.773,2.35,0.379c4.464-2.23,8.548-2.602,12.502-2.965c5.831-0.544,11.86-1.099,18.246-7.482
	c4.589-4.583,5.563-9.381,4.89-13.519l22.454-22.442C65.011,13.406,65.011,6.963,61.038,2.99z M30.816,50.46
	c-5.347,5.345-10.164,5.787-15.741,6.303c-2.877,0.262-6.027,0.555-9.416,1.582c1.027-3.388,1.319-6.536,1.584-9.412
	c0.514-5.575,0.957-10.389,6.306-15.733c8.339-8.338,16.382-0.875,17.263-0.004C31.691,34.082,39.156,42.123,30.816,50.46z
	 M37.219,35.434c-0.993-2.129-2.31-3.903-3.524-5.114c-1.211-1.211-2.983-2.527-5.112-3.517l13.749-13.745l8.635,8.634
	L37.219,35.434z M58.162,14.5l-4.319,4.313l-8.633-8.627l4.315-4.321c2.384-2.379,6.252-2.383,8.637,0
	C60.548,8.252,60.546,12.121,58.162,14.5z"/>
</svg>
