<?xml version="1.0" encoding="utf-8"?>
<!-- Generator: Adobe Illustrator 16.0.0, SVG Export Plug-In . SVG Version: 6.00 Build 0)  -->
<!DOCTYPE svg PUBLIC "-//W3C//DTD SVG 1.0//EN" "http://www.w3.org/TR/2001/REC-SVG-20010904/DTD/svg10.dtd">
<svg version="1.0" id="Layer_1" xmlns="http://www.w3.org/2000/svg" xmlns:xlink="http://www.w3.org/1999/xlink" x="0px" y="0px"
	 width="64px" height="64px" viewBox="0 0 64 64" enable-background="new 0 0 64 64" xml:space="preserve">
<g>
	<rect x="48" y="24" fill="#231F20" width="4" height="4"/>
	<rect x="48" y="36" fill="#231F20" width="4" height="4"/>
	<rect x="48" y="48" fill="#231F20" width="4" height="4"/>
	<rect x="24" y="24" fill="#231F20" width="4" height="4"/>
	<rect x="24" y="36" fill="#231F20" width="4" height="4"/>
	<rect x="12" y="24" fill="#231F20" width="4" height="4"/>
	<rect x="24" y="12" fill="#231F20" width="4" height="4"/>
	<rect x="12" y="12" fill="#231F20" width="4" height="4"/>
	<rect x="12" y="36" fill="#231F20" width="4" height="4"/>
	<path fill="#231F20" d="M60,12H40V4c0-2.211-1.789-4-4-4H4C1.789,0,0,1.789,0,4v56c0,2.211,1.789,4,4,4h32h24c2.211,0,4-1.789,4-4
		V16C64,13.789,62.211,12,60,12z M22,60h-4v-8h4V60z M36,60H26V50c0-1.105-0.895-2-2-2h-8c-1.105,0-2,0.895-2,2v10H6
		c-1.105,0-2-0.895-2-2V6c0-1.105,0.895-2,2-2h28c1.105,0,2,0.895,2,2V60z M60,58c0,1.105-0.895,2-2,2H40V16h18c1.105,0,2,0.895,2,2
		V58z"/>
</g>
</svg>
