<?xml version="1.0" encoding="utf-8"?>
<!-- Generator: Adobe Illustrator 16.0.0, SVG Export Plug-In . SVG Version: 6.00 Build 0)  -->
<!DOCTYPE svg PUBLIC "-//W3C//DTD SVG 1.0//EN" "http://www.w3.org/TR/2001/REC-SVG-20010904/DTD/svg10.dtd">
<svg version="1.0" id="Layer_1" xmlns="http://www.w3.org/2000/svg" xmlns:xlink="http://www.w3.org/1999/xlink" x="0px" y="0px"
	 width="64px" height="64px" viewBox="0 0 64 64" enable-background="new 0 0 64 64" xml:space="preserve">
<g>
	<circle fill="#231F20" cx="50" cy="44" r="4"/>
	<circle fill="#231F20" cx="14" cy="44" r="4"/>
	<path fill="#231F20" d="M62,20v-8c0-6.627-5.373-12-12-12H14C7.373,0,2,5.373,2,12v8c-1.105,0-2,0.895-2,2v8c0,1.105,0.895,2,2,2
		v20c0,2.211,1.789,4,4,4v6c0,1.105,0.895,2,2,2h8c1.105,0,2-0.895,2-2v-6h28v6c0,1.105,0.895,2,2,2h8c1.105,0,2-0.895,2-2v-6
		c2.211,0,4-1.789,4-4V32c1.105,0,2-0.895,2-2v-8C64,20.895,63.105,20,62,20z M14,4h36c2.953,0,5.504,1.619,6.891,4H7.109
		C8.496,5.619,11.047,4,14,4z M6,12h24v20H6V12z M14,60h-4v-4h4V60z M54,60h-4v-4h4V60z M58,50c0,1.105-0.895,2-2,2H8
		c-1.105,0-2-0.895-2-2V36h52V50z M58,32H34V12h24V32z"/>
</g>
</svg>
