<?xml version="1.0" encoding="utf-8"?>
<!-- Generator: Adobe Illustrator 16.0.0, SVG Export Plug-In . SVG Version: 6.00 Build 0)  -->
<!DOCTYPE svg PUBLIC "-//W3C//DTD SVG 1.0//EN" "http://www.w3.org/TR/2001/REC-SVG-20010904/DTD/svg10.dtd">
<svg version="1.0" id="Layer_1" xmlns="http://www.w3.org/2000/svg" xmlns:xlink="http://www.w3.org/1999/xlink" x="0px" y="0px"
	 width="64px" height="64px" viewBox="0 0 64 64" enable-background="new 0 0 64 64" xml:space="preserve">
<g>
	<path fill="#231F20" d="M60,4H50V2c0-1.105-0.895-2-2-2s-2,0.895-2,2v2H18V2c0-1.105-0.895-2-2-2s-2,0.895-2,2v2H4
		C1.789,4,0,5.789,0,8v52c0,2.211,1.789,4,4,4h56c2.211,0,4-1.789,4-4V8C64,5.789,62.211,4,60,4z M60,58c0,1.105-0.895,2-2,2H6
		c-1.105,0-2-0.895-2-2V20h56V58z M60,16H4v-6c0-1.105,0.895-2,2-2h8v2c0,1.105,0.895,2,2,2s2-0.895,2-2V8h28v2c0,1.105,0.895,2,2,2
		s2-0.895,2-2V8h8c1.105,0,2,0.895,2,2V16z"/>
	<path fill="#231F20" d="M16,32h4c1.105,0,2-0.895,2-2s-0.895-2-2-2h-4c-1.105,0-2,0.895-2,2S14.895,32,16,32z"/>
	<path fill="#231F20" d="M44,32h4c1.105,0,2-0.895,2-2s-0.895-2-2-2h-4c-1.105,0-2,0.895-2,2S42.895,32,44,32z"/>
	<path fill="#231F20" d="M30,32h4c1.105,0,2-0.895,2-2s-0.895-2-2-2h-4c-1.105,0-2,0.895-2,2S28.895,32,30,32z"/>
	<path fill="#231F20" d="M16,42h4c1.105,0,2-0.895,2-2s-0.895-2-2-2h-4c-1.105,0-2,0.895-2,2S14.895,42,16,42z"/>
	<path fill="#231F20" d="M44,42h4c1.105,0,2-0.895,2-2s-0.895-2-2-2h-4c-1.105,0-2,0.895-2,2S42.895,42,44,42z"/>
	<path fill="#231F20" d="M30,42h4c1.105,0,2-0.895,2-2s-0.895-2-2-2h-4c-1.105,0-2,0.895-2,2S28.895,42,30,42z"/>
	<path fill="#231F20" d="M16,52h4c1.105,0,2-0.895,2-2s-0.895-2-2-2h-4c-1.105,0-2,0.895-2,2S14.895,52,16,52z"/>
	<path fill="#231F20" d="M30,52h4c1.105,0,2-0.895,2-2s-0.895-2-2-2h-4c-1.105,0-2,0.895-2,2S28.895,52,30,52z"/>
</g>
</svg>
