<?xml version="1.0" encoding="utf-8"?>
<!-- Generator: Adobe Illustrator 16.0.0, SVG Export Plug-In . SVG Version: 6.00 Build 0)  -->
<!DOCTYPE svg PUBLIC "-//W3C//DTD SVG 1.0//EN" "http://www.w3.org/TR/2001/REC-SVG-20010904/DTD/svg10.dtd">
<svg version="1.0" id="Layer_1" xmlns="http://www.w3.org/2000/svg" xmlns:xlink="http://www.w3.org/1999/xlink" x="0px" y="0px"
	 width="64px" height="64px" viewBox="0 0 64 64" enable-background="new 0 0 64 64" xml:space="preserve">
<g>
	<path fill="#231F20" d="M57.943,28.266c0.021-0.148,0.062-0.293,0.049-0.447C57.904,26.846,55.646,4,40,4H24C9.762,4,6,19.699,6,28
		c0,0.094,0.041,0.176,0.053,0.266C2.58,29.137,0,32.254,0,36v8c0,4.422,3.578,8,8,8v6c0,1.105,0.895,2,2,2h8c1.105,0,2-0.895,2-2
		v-6h24v6c0,1.105,0.895,2,2,2h8c1.105,0,2-0.895,2-2v-6c4.422,0,8-3.578,8-8v-8C64,32.252,61.42,29.137,57.943,28.266z M24,8h16
		c11.412,0,13.77,18.047,13.988,20H10C10.002,27.172,10.203,8,24,8z M16,56h-4v-4h4V56z M52,56h-4v-4h4V56z M60,44
		c0,2.209-1.791,4-4,4H8c-2.209,0-4-1.791-4-4v-8c0-2.209,1.791-4,4-4h48c2.209,0,4,1.791,4,4V44z"/>
	<circle fill="#231F20" cx="52" cy="40" r="4"/>
	<circle fill="#231F20" cx="12" cy="40" r="4"/>
	<path fill="#231F20" d="M42,38H22c-1.105,0-2,0.895-2,2s0.895,2,2,2h20c1.105,0,2-0.895,2-2S43.105,38,42,38z"/>
</g>
</svg>
