<?xml version="1.0" encoding="utf-8"?>
<!-- Generator: Adobe Illustrator 16.0.0, SVG Export Plug-In . SVG Version: 6.00 Build 0)  -->
<!DOCTYPE svg PUBLIC "-//W3C//DTD SVG 1.0//EN" "http://www.w3.org/TR/2001/REC-SVG-20010904/DTD/svg10.dtd">
<svg version="1.0" id="Layer_1" xmlns="http://www.w3.org/2000/svg" xmlns:xlink="http://www.w3.org/1999/xlink" x="0px" y="0px"
	 width="64px" height="64px" viewBox="0 0 64 64" enable-background="new 0 0 64 64" xml:space="preserve">
<path fill="#231F20" d="M60,0H4C1.789,0,0,1.789,0,4v56c0,2.211,1.789,4,4,4h56c2.211,0,4-1.789,4-4V31.963v-0.004V4
	C64,1.789,62.211,0,60,0z M6,4h52c1.105,0,2,0.895,2,2v26.555L41.689,22.09C41.871,21.42,42,20.729,42,20c0-4.418-3.582-8-8-8
	s-8,3.582-8,8c0,1.48,0.43,2.85,1.131,4.039L4,47.172V6C4,4.895,4.895,4,6,4z M30,20c0-2.209,1.791-4,4-4s4,1.791,4,4s-1.791,4-4,4
	S30,22.209,30,20z M58,60H6c-1.105,0-2-0.895-2-2v-5.172l25.959-25.961C31.148,27.57,32.52,28,34,28
	c2.248,0,4.271-0.934,5.725-2.426L60,37.16V58C60,59.105,59.105,60,58,60z"/>
</svg>
