<?xml version="1.0" encoding="utf-8"?>
<!-- Generator: Adobe Illustrator 16.0.0, SVG Export Plug-In . SVG Version: 6.00 Build 0)  -->
<!DOCTYPE svg PUBLIC "-//W3C//DTD SVG 1.0//EN" "http://www.w3.org/TR/2001/REC-SVG-20010904/DTD/svg10.dtd">
<svg version="1.0" id="Layer_1" xmlns="http://www.w3.org/2000/svg" xmlns:xlink="http://www.w3.org/1999/xlink" x="0px" y="0px"
	 width="64px" height="64px" viewBox="0 0 64 64" enable-background="new 0 0 64 64" xml:space="preserve">
<g>
	<path fill="#231F20" d="M60,0H4C1.789,0,0,1.789,0,4v56c0,2.211,1.789,4,4,4h56c2.211,0,4-1.789,4-4V4C64,1.789,62.211,0,60,0z
		 M60,58c0,1.105-0.895,2-2,2H6c-1.105,0-2-0.895-2-2V6c0-1.105,0.895-2,2-2h52c1.105,0,2,0.895,2,2V58z"/>
	<path fill="#231F20" d="M52,34h-8c-1.105,0-2,0.895-2,2v18h12V36C54,34.895,53.105,34,52,34z M50,50h-4V38h4V50z"/>
	<path fill="#231F20" d="M36,10h-8c-1.105,0-2,0.895-2,2v42h12V12C38,10.895,37.105,10,36,10z M34,50h-4V14h4V50z"/>
	<path fill="#231F20" d="M20,22h-8c-1.105,0-2,0.895-2,2v30h12V24C22,22.895,21.105,22,20,22z M18,50h-4V26h4V50z"/>
</g>
</svg>
