<?xml version="1.0" encoding="utf-8"?>
<!-- Generator: Adobe Illustrator 16.0.0, SVG Export Plug-In . SVG Version: 6.00 Build 0)  -->
<!DOCTYPE svg PUBLIC "-//W3C//DTD SVG 1.0//EN" "http://www.w3.org/TR/2001/REC-SVG-20010904/DTD/svg10.dtd">
<svg version="1.0" id="Layer_1" xmlns="http://www.w3.org/2000/svg" xmlns:xlink="http://www.w3.org/1999/xlink" x="0px" y="0px"
	 width="64px" height="64px" viewBox="0 0 64 64" enable-background="new 0 0 64 64" xml:space="preserve">
<g>
	<path d="M36,0c-1.105,0-2,0.895-2,2v28h28c1.105,0,2-0.895,2-2C64,12.535,51.465,0,36,0z M38,26V4.102
		C49.654,5.066,58.936,14.346,59.898,26H38z"/>
	<path d="M54,34H30V10c0-1.105-0.895-2-2-2C12.535,8,0,20.535,0,36s12.535,28,28,28s28-12.535,28-28C56,34.895,55.105,34,54,34z
		 M28,60C14.746,60,4,49.254,4,36c0-12.578,9.684-22.879,22-23.898V36c0,1.105,0.895,2,2,2h23.898C50.881,50.316,40.578,60,28,60z"
		/>
</g>
</svg>
