<?xml version="1.0" encoding="utf-8"?>
<!-- Generator: Adobe Illustrator 16.0.0, SVG Export Plug-In . SVG Version: 6.00 Build 0)  -->
<!DOCTYPE svg PUBLIC "-//W3C//DTD SVG 1.0//EN" "http://www.w3.org/TR/2001/REC-SVG-20010904/DTD/svg10.dtd">
<svg version="1.0" id="Layer_1" xmlns="http://www.w3.org/2000/svg" xmlns:xlink="http://www.w3.org/1999/xlink" x="0px" y="0px"
	 width="64px" height="64px" viewBox="0 0 64 64" enable-background="new 0 0 64 64" xml:space="preserve">
<g>
	<path fill="#231F20" d="M32,0C14.328,0,0,14.328,0,32s14.328,32,32,32s32-14.328,32-32S49.672,0,32,0z M32,60
		C16.535,60,4,47.465,4,32S16.535,4,32,4s28,12.535,28,28S47.465,60,32,60z"/>
	<path fill="#231F20" d="M56,30h-2.004c-1.105,0-2,0.895-2,2s0.895,2,2,2H56c1.105,0,2-0.895,2-2S57.105,30,56,30z"/>
	<path fill="#231F20" d="M47.559,13.613l-1.418,1.418c-0.781,0.781-0.781,2.047,0,2.828c0.781,0.783,2.047,0.781,2.828,0
		l1.418-1.418c0.781-0.781,0.781-2.045,0-2.828C49.605,12.832,48.34,12.832,47.559,13.613z"/>
	<path fill="#231F20" d="M16.441,13.611c-0.781-0.781-2.043-0.781-2.828,0c-0.781,0.783-0.781,2.047,0,2.828l1.418,1.416
		c0.781,0.783,2.047,0.785,2.828,0.002c0.783-0.779,0.781-2.047,0-2.826L16.441,13.611z"/>
	<path fill="#231F20" d="M10.004,30l-2.008-0.002c-1.105,0.002-1.996,0.893-2,2c0.002,1.105,0.895,1.998,2,2L10,33.996
		c1.105,0,2.004-0.891,2.002-1.998C12.004,30.893,11.107,29.998,10.004,30z"/>
	<path fill="#231F20" d="M15.033,46.139l-1.422,1.418c-0.779,0.783-0.779,2.043,0.002,2.83c0.781,0.779,2.043,0.777,2.828,0
		l1.414-1.42c0.781-0.781,0.789-2.045,0.004-2.828C17.078,45.355,15.812,45.355,15.033,46.139z"/>
	<path fill="#231F20" d="M32,51.996c-1.107-0.002-2.002,0.893-2,2l-0.002,2.006c0.002,1.104,0.895,1.996,2.002,2
		c1.105-0.002,1.996-0.896,2-2l-0.004-2.004C33.996,52.895,33.109,51.996,32,51.996z"/>
	<path fill="#231F20" d="M48.967,46.143c-0.779-0.779-2.041-0.787-2.826-0.004c-0.785,0.781-0.785,2.047,0,2.828l1.416,1.42
		c0.783,0.777,2.045,0.779,2.83-0.002c0.781-0.783,0.777-2.045,0-2.828L48.967,46.143z"/>
	<path fill="#231F20" d="M37.4,34.572C37.773,33.789,38,32.924,38,32c0-2.607-1.676-4.805-4-5.633V10c0-1.105-0.895-2-2-2
		s-2,0.895-2,2v16.367c-2.324,0.828-4,3.025-4,5.633c0,3.312,2.688,6,6,6c0.924,0,1.789-0.227,2.572-0.6l6.779,6.779
		c0.783,0.781,2.039,0.773,2.822-0.01c0.781-0.781,0.742-2.084-0.041-2.865L37.4,34.572z M32,34c-1.105,0-2-0.895-2-2s0.895-2,2-2
		s2,0.895,2,2S33.105,34,32,34z"/>
</g>
</svg>
