<?xml version="1.0" encoding="utf-8"?>
<!-- Generator: Adobe Illustrator 16.0.0, SVG Export Plug-In . SVG Version: 6.00 Build 0)  -->
<!DOCTYPE svg PUBLIC "-//W3C//DTD SVG 1.0//EN" "http://www.w3.org/TR/2001/REC-SVG-20010904/DTD/svg10.dtd">
<svg version="1.0" id="Layer_1" xmlns="http://www.w3.org/2000/svg" xmlns:xlink="http://www.w3.org/1999/xlink" x="0px" y="0px"
	 width="64px" height="64px" viewBox="0 0 64 64" enable-background="new 0 0 64 64" xml:space="preserve">
<g>
	<path fill-rule="evenodd" clip-rule="evenodd" fill="#231F20" d="M53.764,25.09C52.352,15.426,44.053,8,34,8
		c-8.262,0-15.354,5.012-18.402,12.16C15.082,20.057,14.547,20,14,20c-4.418,0-8,3.582-8,8c0,1.82,0.631,3.48,1.656,4.824
		C3.18,34.566,0,38.906,0,44c0,6.627,5.373,12,12,12v0.004h36V56c8.838,0,16-7.16,16-16C64,33.199,59.75,27.402,53.764,25.09z
		 M48,52.004H12c-4.418,0-8-3.582-8-8s3.582-8,8-8c0,0,2,0.029,2-2c0-1.75-1.078-2.113-1.557-2.314C11.008,31.08,10,29.66,10,28.004
		c0-2.211,1.791-4,4-4h2.438c0,0,2.062,0,2.76-2.033c2.379-5.848,8.104-9.967,14.803-9.967c8.164,0,14.902,6.113,15.879,14.018
		c0.08,0.65-0.098,1.184,0.465,1.824s0.98,0.619,1.613,0.84C56.639,30.318,60,34.764,60,40.004C60,46.629,54.627,52.004,48,52.004z"
		/>
	<path fill-rule="evenodd" clip-rule="evenodd" fill="#231F20" d="M34,16c-1.105,0-2,0.895-2,2s0.895,2,2,2c4.418,0,8,3.582,8,8
		c0,1.105,0.895,2,2,2s2-0.895,2-2C46,21.373,40.627,16,34,16z"/>
</g>
</svg>
