<?xml version="1.0" encoding="utf-8"?>
<!-- Generator: Adobe Illustrator 16.0.0, SVG Export Plug-In . SVG Version: 6.00 Build 0)  -->
<!DOCTYPE svg PUBLIC "-//W3C//DTD SVG 1.0//EN" "http://www.w3.org/TR/2001/REC-SVG-20010904/DTD/svg10.dtd">
<svg version="1.0" id="Layer_1" xmlns="http://www.w3.org/2000/svg" xmlns:xlink="http://www.w3.org/1999/xlink" x="0px" y="0px"
	 width="64px" height="64px" viewBox="0 0 64 64" enable-background="new 0 0 64 64" xml:space="preserve">
<g>
	<path fill="#231F20" d="M60,0H16c-2.211,0-4,1.789-4,4v8H4c-2.211,0-4,1.789-4,4v28c0,2.211,1.789,4,4,4h8v12
		c0,1.617,0.973,3.078,2.469,3.695C14.965,63.902,15.484,64,16,64c1.039,0,2.062-0.406,2.828-1.172L33.656,48H48
		c2.211,0,4-1.789,4-4v-8h8c2.211,0,4-1.789,4-4V4C64,1.789,62.211,0,60,0z M48,42c0,1.105-0.895,2-2,2c0,0-10.689,0-12.344,0
		s-2.828,1.172-2.828,1.172L16,60V46c0-1.105-0.895-2-2-2H6c-1.105,0-2-0.895-2-2V18c0-1.105,0.895-2,2-2h40c1.105,0,2,0.895,2,2V42
		z M60,30c0,1.105-0.895,2-2,2h-6V16c0-2.211-1.789-4-4-4H16V6c0-1.105,0.895-2,2-2h40c1.105,0,2,0.895,2,2V30z"/>
	<path fill="#231F20" d="M14,28h10c1.105,0,2-0.895,2-2s-0.895-2-2-2H14c-1.105,0-2,0.895-2,2S12.895,28,14,28z"/>
	<path fill="#231F20" d="M38,32H14c-1.105,0-2,0.895-2,2s0.895,2,2,2h24c1.105,0,2-0.895,2-2S39.105,32,38,32z"/>
</g>
</svg>
