<?xml version="1.0" encoding="utf-8"?>
<!-- Generator: Adobe Illustrator 16.0.0, SVG Export Plug-In . SVG Version: 6.00 Build 0)  -->
<!DOCTYPE svg PUBLIC "-//W3C//DTD SVG 1.0//EN" "http://www.w3.org/TR/2001/REC-SVG-20010904/DTD/svg10.dtd">
<svg version="1.0" id="Layer_1" xmlns="http://www.w3.org/2000/svg" xmlns:xlink="http://www.w3.org/1999/xlink" x="0px" y="0px"
	 width="64px" height="64px" viewBox="0 0 64 64" enable-background="new 0 0 64 64" xml:space="preserve">
<g>
	<path fill="#231F20" d="M32,0C14.326,0,0,14.326,0,32s14.326,32,32,32s32-14.326,32-32S49.674,0,32,0z M32,60
		C16.535,60,4,47.465,4,32S16.535,4,32,4s28,12.535,28,28S47.465,60,32,60z"/>
	<path fill="#231F20" d="M32,12c1.105-0.002,1.996-0.896,2-2l-0.004-2.004c0-1.104-0.887-2.002-1.996-2.002
		c-1.107-0.002-2.002,0.893-2,2L29.998,10C30,11.104,30.893,11.996,32,12z"/>
	<path fill="#231F20" d="M56.006,30L54,29.998C52.896,30,52.004,30.893,52,32c0.002,1.105,0.896,1.996,2,2l2.004-0.004
		c1.104,0,2.002-0.887,2.002-1.996C58.008,30.893,57.113,29.998,56.006,30z"/>
	<path fill="#231F20" d="M32,52c-1.105,0.002-1.996,0.896-2,2l0.004,2.004c0,1.104,0.887,2.002,1.996,2.002
		c1.107,0.002,2.002-0.893,2-2L34.002,54C34,52.896,33.107,52.004,32,52z"/>
	<path fill="#231F20" d="M10,30l-2.004,0.004c-1.104,0-2.002,0.887-2.002,1.996c-0.002,1.107,0.893,2.002,2,2L10,34.002
		C11.104,34,11.996,33.107,12,32C11.998,30.895,11.104,30.004,10,30z"/>
	<path fill="#231F20" d="M45.258,16.143l-20,7.998c-0.508,0.203-0.912,0.605-1.115,1.115l-8,20.002
		c-0.297,0.742-0.123,1.59,0.443,2.156C16.969,47.797,17.48,48,18,48c0.25,0,0.502-0.047,0.742-0.143l20-8
		c0.51-0.203,0.912-0.605,1.115-1.115l8-20c0.297-0.742,0.123-1.59-0.443-2.156C46.848,16.018,45.998,15.848,45.258,16.143z
		 M36.461,36.461L21.59,42.41l5.949-14.873L42.41,21.59L36.461,36.461z"/>
	<circle fill="#231F20" cx="32" cy="32" r="2"/>
</g>
</svg>
