<?xml version="1.0" encoding="utf-8"?>
<!-- Generator: Adobe Illustrator 16.0.0, SVG Export Plug-In . SVG Version: 6.00 Build 0)  -->
<!DOCTYPE svg PUBLIC "-//W3C//DTD SVG 1.0//EN" "http://www.w3.org/TR/2001/REC-SVG-20010904/DTD/svg10.dtd">
<svg version="1.0" id="Layer_1" xmlns="http://www.w3.org/2000/svg" xmlns:xlink="http://www.w3.org/1999/xlink" x="0px" y="0px"
	 width="64px" height="64px" viewBox="0 0 64 64" enable-background="new 0 0 64 64" xml:space="preserve">
<g>
	<path fill="#231F20" d="M60,8H4c-2.211,0-4,1.789-4,4v40c0,2.211,1.789,4,4,4h56c2.211,0,4-1.789,4-4V12C64,9.789,62.211,8,60,8z
		 M60,50c0,1.105-0.895,2-2,2H6c-1.105,0-2-0.895-2-2V32h56V50z M60,28H4v-4h56V28z M60,20H4v-6c0-1.105,0.895-2,2-2h52
		c1.105,0,2,0.895,2,2V20z"/>
	<path fill="#231F20" d="M14,44h16c1.105,0,2-0.895,2-2s-0.895-2-2-2H14c-1.105,0-2,0.895-2,2S12.895,44,14,44z"/>
</g>
</svg>
