<?xml version="1.0" encoding="utf-8"?>
<!-- Generator: Adobe Illustrator 16.0.0, SVG Export Plug-In . SVG Version: 6.00 Build 0)  -->
<!DOCTYPE svg PUBLIC "-//W3C//DTD SVG 1.0//EN" "http://www.w3.org/TR/2001/REC-SVG-20010904/DTD/svg10.dtd">
<svg version="1.0" id="Layer_1" xmlns="http://www.w3.org/2000/svg" xmlns:xlink="http://www.w3.org/1999/xlink" x="0px" y="0px"
	 width="64px" height="64px" viewBox="0 0 64 64" enable-background="new 0 0 64 64" xml:space="preserve">
<g>
	<path fill="#231F20" d="M32,0C14.355,0,0,14.355,0,32s14.355,32,32,32s32-14.355,32-32S49.645,0,32,0z M32,60
		C16.561,60,4,47.439,4,32S16.561,4,32,4s28,12.561,28,28S47.439,60,32,60z"/>
	<path fill="#231F20" d="M32,38c3.309,0,6-2.691,6-6c0-2.604-1.678-4.803-4-5.631V10c0-1.105-0.895-2-2-2s-2,0.895-2,2v16.369
		c-2.322,0.828-4,3.027-4,5.631C26,35.309,28.691,38,32,38z M32,30c1.104,0,2,0.896,2,2s-0.896,2-2,2s-2-0.896-2-2S30.896,30,32,30z
		"/>
	<path fill="#231F20" d="M12,32c0-1.105-0.895-2-2-2H8c-1.105,0-2,0.895-2,2s0.895,2,2,2h2C11.105,34,12,33.105,12,32z"/>
	<path fill="#231F20" d="M11.945,41.268l-1.73,1C9.258,42.82,8.93,44.045,9.482,45c0.371,0.643,1.043,1,1.734,1
		c0.34,0,0.684-0.086,0.998-0.268l1.73-1c0.957-0.553,1.285-1.777,0.732-2.732C14.123,41.041,12.898,40.715,11.945,41.268z"/>
	<path fill="#231F20" d="M42,46H22c-1.105,0-2,0.895-2,2s0.895,2,2,2h20c1.105,0,2-0.895,2-2S43.105,46,42,46z"/>
	<path fill="#231F20" d="M13.947,19.268l-1.732-1c-0.955-0.551-2.18-0.223-2.732,0.732c-0.553,0.957-0.225,2.18,0.732,2.732l1.732,1
		C12.262,22.914,12.605,23,12.945,23c0.691,0,1.363-0.359,1.734-1C15.232,21.043,14.904,19.82,13.947,19.268z"/>
	<path fill="#231F20" d="M21.998,14.682c0.957-0.551,1.287-1.775,0.734-2.73l-1-1.734c-0.549-0.957-1.773-1.289-2.73-0.734
		c-0.957,0.551-1.287,1.775-0.734,2.73l1,1.734c0.369,0.643,1.043,1.002,1.734,1.002C21.34,14.949,21.684,14.863,21.998,14.682z"/>
	<path fill="#231F20" d="M44.998,9.482c-0.955-0.553-2.182-0.225-2.73,0.734l-1,1.734c-0.553,0.955-0.223,2.18,0.734,2.73
		c0.314,0.182,0.656,0.268,0.996,0.268c0.691,0,1.365-0.359,1.734-1.002l1-1.734C46.285,11.258,45.955,10.033,44.998,9.482z"/>
	<path fill="#231F20" d="M51.053,23.002c0.34,0,0.684-0.086,0.998-0.268l1.734-1.002c0.957-0.553,1.285-1.777,0.732-2.732
		c-0.555-0.959-1.779-1.283-2.732-0.732l-1.734,1.002c-0.957,0.553-1.285,1.777-0.732,2.732
		C49.689,22.645,50.361,23.002,51.053,23.002z"/>
	<path fill="#231F20" d="M56,30h-2.004c-1.105,0-2,0.895-2,2s0.895,2,2,2H56c1.105,0,2-0.895,2-2S57.105,30,56,30z"/>
	<path fill="#231F20" d="M53.783,42.268l-1.736-1c-0.959-0.553-2.182-0.223-2.73,0.734c-0.553,0.957-0.223,2.18,0.734,2.73l1.736,1
		C52.102,45.914,52.445,46,52.783,46c0.691,0,1.365-0.359,1.734-1.002C55.07,44.041,54.74,42.818,53.783,42.268z"/>
</g>
</svg>
