<?xml version="1.0" encoding="utf-8"?>
<!-- Generator: Adobe Illustrator 16.0.0, SVG Export Plug-In . SVG Version: 6.00 Build 0)  -->
<!DOCTYPE svg PUBLIC "-//W3C//DTD SVG 1.0//EN" "http://www.w3.org/TR/2001/REC-SVG-20010904/DTD/svg10.dtd">
<svg version="1.0" id="Layer_1" xmlns="http://www.w3.org/2000/svg" xmlns:xlink="http://www.w3.org/1999/xlink" x="0px" y="0px"
	 width="64px" height="64px" viewBox="0 0 64 64" enable-background="new 0 0 64 64" xml:space="preserve">
<path fill="#231F20" d="M60,8H4c-2.211,0-4,1.789-4,4v40c0,2.211,1.789,4,4,4h56c2.211,0,4-1.789,4-4V12C64,9.789,62.211,8,60,8z
	 M6,12h52c1.084,0,1.953,0.863,1.988,1.938L32,35.396L4.012,13.938C4.047,12.863,4.916,12,6,12z M58,52H6
	c-0.949,0-1.707-0.674-1.912-1.561l15.193-10.902c0.848-0.707,0.963-1.969,0.256-2.818s-1.967-0.961-2.818-0.256L4,45.334V19.133
	l26.719,20.404C31.09,39.846,31.545,40,32,40s0.91-0.154,1.281-0.463L60,19.133v25.912l-12.719-8.582
	c-0.852-0.705-2.111-0.594-2.818,0.256s-0.592,2.111,0.256,2.818l15.244,10.646C59.867,51.197,59.041,52,58,52z"/>
</svg>
