<?xml version="1.0" encoding="utf-8"?>
<!-- Generator: Adobe Illustrator 16.0.0, SVG Export Plug-In . SVG Version: 6.00 Build 0)  -->
<!DOCTYPE svg PUBLIC "-//W3C//DTD SVG 1.0//EN" "http://www.w3.org/TR/2001/REC-SVG-20010904/DTD/svg10.dtd">
<svg version="1.0" id="Layer_1" xmlns="http://www.w3.org/2000/svg" xmlns:xlink="http://www.w3.org/1999/xlink" x="0px" y="0px"
	 width="64px" height="64px" viewBox="0 0 64 64" enable-background="new 0 0 64 64" xml:space="preserve">
<g>
	<path fill="#231F20" d="M60,0H4C1.789,0,0,1.789,0,4v56c0,2.211,1.789,4,4,4h56c2.211,0,4-1.789,4-4V4C64,1.789,62.211,0,60,0z
		 M60,58c0,1.105-0.895,2-2,2H6c-1.105,0-2-0.895-2-2V6c0-1.105,0.895-2,2-2h52c1.105,0,2,0.895,2,2V58z"/>
	<path fill="#231F20" d="M42,32c-4.838,0-8.871,3.436-9.799,8H14c-1.105,0-2,0.895-2,2s0.895,2,2,2h18.201
		c0.928,4.564,4.961,8,9.799,8c5.523,0,10-4.477,10-10S47.523,32,42,32z M42,48c-3.314,0-6-2.688-6-6s2.686-6,6-6s6,2.688,6,6
		S45.314,48,42,48z"/>
	<path fill="#231F20" d="M50,20H31.799c-0.928-4.564-4.961-8-9.799-8c-5.523,0-10,4.477-10,10s4.477,10,10,10
		c4.838,0,8.871-3.436,9.799-8H50c1.105,0,2-0.895,2-2S51.105,20,50,20z M22,28c-3.314,0-6-2.688-6-6s2.686-6,6-6s6,2.688,6,6
		S25.314,28,22,28z"/>
</g>
</svg>
