<?xml version="1.0" encoding="utf-8"?>
<!-- Generator: Adobe Illustrator 16.0.0, SVG Export Plug-In . SVG Version: 6.00 Build 0)  -->
<!DOCTYPE svg PUBLIC "-//W3C//DTD SVG 1.0//EN" "http://www.w3.org/TR/2001/REC-SVG-20010904/DTD/svg10.dtd">
<svg version="1.0" id="Layer_1" xmlns="http://www.w3.org/2000/svg" xmlns:xlink="http://www.w3.org/1999/xlink" x="0px" y="0px"
	 width="64px" height="64px" viewBox="0 0 64 64" enable-background="new 0 0 64 64" xml:space="preserve">
<g>
	<path fill="#231F20" d="M63.863,31.274C63.773,31.042,54.535,8,32,8C9.464,8,0.226,31.042,0.136,31.274
		c-0.182,0.467-0.182,0.986,0,1.453C0.226,32.96,9.464,56.001,32,56.001c22.535,0,31.773-23.041,31.863-23.273
		C64.045,32.261,64.045,31.741,63.863,31.274z M32,52.001c-17.885,0-26.167-16.27-27.829-20C5.833,28.271,14.115,12,32,12
		c17.885,0,26.166,16.271,27.828,20.001C58.166,35.731,49.885,52.001,32,52.001z"/>
	<path fill="#231F20" d="M32,20c-6.627,0-12,5.374-12,12.001s5.373,12,12,12s12-5.373,12-12S38.627,20,32,20z M32,40.001
		c-4.418,0-8-3.582-8-8s3.582-8,8-8s8,3.582,8,8S36.418,40.001,32,40.001z"/>
</g>
</svg>
