<?xml version="1.0" encoding="utf-8"?>
<!-- Generator: Adobe Illustrator 16.0.0, SVG Export Plug-In . SVG Version: 6.00 Build 0)  -->
<!DOCTYPE svg PUBLIC "-//W3C//DTD SVG 1.0//EN" "http://www.w3.org/TR/2001/REC-SVG-20010904/DTD/svg10.dtd">
<svg version="1.0" id="Layer_1" xmlns="http://www.w3.org/2000/svg" xmlns:xlink="http://www.w3.org/1999/xlink" x="0px" y="0px"
	 width="64px" height="64px" viewBox="0 0 64 64" enable-background="new 0 0 64 64" xml:space="preserve">
<g>
	<path fill="#231F20" d="M56,0H8C5.789,0,4,1.789,4,4v56c0,2.211,1.789,4,4,4h48c2.211,0,4-1.789,4-4V4C60,1.789,58.211,0,56,0z
		 M56,58c0,1.105-0.895,2-2,2H10c-1.105,0-2-0.895-2-2V6c0-1.105,0.895-2,2-2h44c1.105,0,2,0.895,2,2V58z"/>
	<path fill="#231F20" d="M46,30H18c-1.105,0-2,0.895-2,2s0.895,2,2,2h28c1.105,0,2-0.895,2-2S47.105,30,46,30z"/>
	<path fill="#231F20" d="M46,38H18c-1.105,0-2,0.895-2,2s0.895,2,2,2h28c1.105,0,2-0.895,2-2S47.105,38,46,38z"/>
	<path fill="#231F20" d="M46,46H18c-1.105,0-2,0.895-2,2s0.895,2,2,2h28c1.105,0,2-0.895,2-2S47.105,46,46,46z"/>
	<path fill="#231F20" d="M46,22H18c-1.105,0-2,0.895-2,2s0.895,2,2,2h28c1.105,0,2-0.895,2-2S47.105,22,46,22z"/>
	<path fill="#231F20" d="M18,18h12c1.105,0,2-0.895,2-2s-0.895-2-2-2H18c-1.105,0-2,0.895-2,2S16.895,18,18,18z"/>
</g>
</svg>
