<?xml version="1.0" encoding="utf-8"?>
<!-- Generator: Adobe Illustrator 16.0.0, SVG Export Plug-In . SVG Version: 6.00 Build 0)  -->
<!DOCTYPE svg PUBLIC "-//W3C//DTD SVG 1.0//EN" "http://www.w3.org/TR/2001/REC-SVG-20010904/DTD/svg10.dtd">
<svg version="1.0" id="Layer_1" xmlns="http://www.w3.org/2000/svg" xmlns:xlink="http://www.w3.org/1999/xlink" x="0px" y="0px"
	 width="64px" height="64px" viewBox="0 0 64 64" enable-background="new 0 0 64 64" xml:space="preserve">
<g>
	<path fill="#231F20" d="M60,0H16c-2.211,0-4,1.789-4,4v26H4c-2.211,0-4,1.789-4,4v22c0,4.418,3.582,8,8,8h48c4.418,0,8-3.582,8-8V4
		C64,1.789,62.211,0,60,0z M4,56V36c0-1.105,0.895-2,2-2h6v22c0,2.209-1.791,4-4,4S4,58.209,4,56z M56,60H14.891
		C15.578,58.818,16,57.465,16,56V6c0-1.105,0.895-2,2-2h40c1.105,0,2,0.895,2,2v50C60,58.209,58.209,60,56,60z"/>
	<path fill="#231F20" d="M50,30H26c-1.105,0-2,0.895-2,2s0.895,2,2,2h24c1.105,0,2-0.895,2-2S51.105,30,50,30z"/>
	<path fill="#231F20" d="M50,38H26c-1.105,0-2,0.895-2,2s0.895,2,2,2h24c1.105,0,2-0.895,2-2S51.105,38,50,38z"/>
	<path fill="#231F20" d="M50,46H26c-1.105,0-2,0.895-2,2s0.895,2,2,2h24c1.105,0,2-0.895,2-2S51.105,46,50,46z"/>
	<path fill="#231F20" d="M50,22H26c-1.105,0-2,0.895-2,2s0.895,2,2,2h24c1.105,0,2-0.895,2-2S51.105,22,50,22z"/>
	<path fill="#231F20" d="M26,18h12c1.105,0,2-0.895,2-2s-0.895-2-2-2H26c-1.105,0-2,0.895-2,2S24.895,18,26,18z"/>
</g>
</svg>
