<?xml version="1.0" encoding="utf-8"?>
<!-- Generator: Adobe Illustrator 16.0.0, SVG Export Plug-In . SVG Version: 6.00 Build 0)  -->
<!DOCTYPE svg PUBLIC "-//W3C//DTD SVG 1.0//EN" "http://www.w3.org/TR/2001/REC-SVG-20010904/DTD/svg10.dtd">
<svg version="1.0" id="Layer_1" xmlns="http://www.w3.org/2000/svg" xmlns:xlink="http://www.w3.org/1999/xlink" x="0px" y="0px"
	 width="64px" height="64px" viewBox="0 0 64 64" enable-background="new 0 0 64 64" xml:space="preserve">
<path fill="#231F20" d="M63.17,26.377c-0.523-0.377-1.195-0.482-1.803-0.273L52,29.223V24c0-2.211-1.789-4-4-4h-3.072
	C46.832,17.875,48,15.078,48,12c0-6.629-5.371-12-12-12c-4.178,0-7.852,2.135-10,5.371C23.852,2.135,20.178,0,16,0
	C9.371,0,4,5.371,4,12c0,3.078,1.168,5.875,3.072,8H4c-2.211,0-4,1.789-4,4v36c0,2.211,1.789,4,4,4h44c2.211,0,4-1.789,4-4v-5.229
	l9.367,3.123c0.207,0.07,0.42,0.104,0.633,0.104c0.414,0,0.824-0.129,1.17-0.377c0.521-0.377,0.83-0.98,0.83-1.623V28
	C64,27.357,63.691,26.754,63.17,26.377z M36,4c4.418,0,8,3.582,8,8s-3.582,8-8,8s-8-3.582-8-8S31.582,4,36,4z M27.072,20h-2.145
	c0.387-0.432,0.75-0.887,1.072-1.371C26.322,19.113,26.686,19.568,27.072,20z M8,12c0-4.418,3.582-8,8-8s8,3.582,8,8s-3.582,8-8,8
	S8,16.418,8,12z M48,58c0,1.105-0.895,2-2,2H6c-1.105,0-2-0.895-2-2V26c0-1.105,0.895-2,2-2h40c1.105,0,2,0.895,2,2V58z M60,53.223
	l-8-2.666V33.439l8-2.664V53.223z"/>
</svg>
