<?xml version="1.0" encoding="utf-8"?>
<!-- Generator: Adobe Illustrator 16.0.0, SVG Export Plug-In . SVG Version: 6.00 Build 0)  -->
<!DOCTYPE svg PUBLIC "-//W3C//DTD SVG 1.0//EN" "http://www.w3.org/TR/2001/REC-SVG-20010904/DTD/svg10.dtd">
<svg version="1.0" id="Layer_1" xmlns="http://www.w3.org/2000/svg" xmlns:xlink="http://www.w3.org/1999/xlink" x="0px" y="0px"
	 width="64px" height="64px" viewBox="0 0 64 64" enable-background="new 0 0 64 64" xml:space="preserve">
<path fill="#231F20" d="M60,0H4C1.789,0,0,1.789,0,4v56c0,2.211,1.789,4,4,4h56c2.211,0,4-1.789,4-4V4C64,1.789,62.211,0,60,0z M4,6
	c0-1.105,0.895-2,2-2h6v8H4V6z M4,16h8v8H4V16z M4,28h8v8H4V28z M4,40h8v8H4V40z M6,60c-1.105,0-2-0.895-2-2v-6h8v8H6z M16,60V4h32
	v56H16z M60,58c0,1.105-0.895,2-2,2h-6v-8h8V58z M60,48h-8v-8h8V48z M60,36h-8v-8h8V36z M60,24h-8v-8h8V24z M60,12h-8V4h6
	c1.105,0,2,0.895,2,2V12z"/>
</svg>
