<?xml version="1.0" encoding="utf-8"?>
<!-- Generator: Adobe Illustrator 16.0.0, SVG Export Plug-In . SVG Version: 6.00 Build 0)  -->
<!DOCTYPE svg PUBLIC "-//W3C//DTD SVG 1.0//EN" "http://www.w3.org/TR/2001/REC-SVG-20010904/DTD/svg10.dtd">
<svg version="1.0" id="Layer_1" xmlns="http://www.w3.org/2000/svg" xmlns:xlink="http://www.w3.org/1999/xlink" x="0px" y="0px"
	 width="64px" height="64px" viewBox="0 0 64 64" enable-background="new 0 0 64 64" xml:space="preserve">
<path fill="#231F20" d="M60,8H36V4c0-2.209-1.789-4-4-4H4C1.789,0,0,1.791,0,4v56c0,2.211,1.789,4,4,4h56c2.211,0,4-1.789,4-4V12
	C64,9.789,62.211,8,60,8z M60,58c0,1.105-0.895,2-2,2H6c-1.105,0-2-0.895-2-2V20h56V58z M60,16H4V6c0-1.105,0.895-2,2-2h24
	c1.105,0,2,0.895,2,2v6h26c1.105,0,2,0.895,2,2V16z"/>
</svg>
