<?xml version="1.0" encoding="utf-8"?>
<!-- Generator: Adobe Illustrator 16.0.0, SVG Export Plug-In . SVG Version: 6.00 Build 0)  -->
<!DOCTYPE svg PUBLIC "-//W3C//DTD SVG 1.0//EN" "http://www.w3.org/TR/2001/REC-SVG-20010904/DTD/svg10.dtd">
<svg version="1.0" id="Layer_1" xmlns="http://www.w3.org/2000/svg" xmlns:xlink="http://www.w3.org/1999/xlink" x="0px" y="0px"
	 width="64px" height="64px" viewBox="0 0 64 64" enable-background="new 0 0 64 64" xml:space="preserve">
<g>
	<path fill="#231F20" d="M42,0c-6.074,0-11.574,2.461-15.555,6.443l-8.588,8.588L3.414,0.588c-0.781-0.781-2.047-0.781-2.828,0
		s-0.781,2.047,0,2.828l14.443,14.443l-8.584,8.584C2.463,30.424,0,35.924,0,42c0,12.15,9.85,22,22,22
		c6.076,0,11.576-2.463,15.557-6.443l20-20C61.537,33.574,64,28.074,64,22C64,9.85,54.15,0,42,0z M54.729,34.729l-20,20
		c-3.256,3.258-7.758,5.273-12.729,5.273c-9.941,0-18-8.059-18-18c0-4.971,2.016-9.473,5.273-12.729l20-20
		C32.531,6.016,37.029,4.002,42,4.002c9.941,0,18,8.059,18,18C60,26.973,57.986,31.473,54.729,34.729z"/>
	<path fill="#231F20" d="M28,40h-4v-4c0-1.105-0.895-2-2-2s-2,0.895-2,2v4h-4c-1.105,0-2,0.895-2,2s0.895,2,2,2h4v4
		c0,1.105,0.895,2,2,2s2-0.895,2-2v-4h4c1.105,0,2-0.895,2-2S29.105,40,28,40z"/>
	<circle fill="#231F20" cx="48" cy="22" r="2"/>
	<circle fill="#231F20" cx="42" cy="16" r="2"/>
	<circle fill="#231F20" cx="42" cy="28" r="2"/>
	<circle fill="#231F20" cx="36" cy="22" r="2"/>
</g>
</svg>
