<?xml version="1.0" encoding="utf-8"?>
<!-- Generator: Adobe Illustrator 16.0.0, SVG Export Plug-In . SVG Version: 6.00 Build 0)  -->
<!DOCTYPE svg PUBLIC "-//W3C//DTD SVG 1.0//EN" "http://www.w3.org/TR/2001/REC-SVG-20010904/DTD/svg10.dtd">
<svg version="1.0" id="Layer_1" xmlns="http://www.w3.org/2000/svg" xmlns:xlink="http://www.w3.org/1999/xlink" x="0px" y="0px"
	 width="64px" height="64px" viewBox="0 0 64 64" enable-background="new 0 0 64 64" xml:space="preserve">
<path fill="#231F20" d="M59.998-0.002v0.004h-6c-1.105,0-2,0.895-2,2c0,1.102,0.895,2,2,2h4.01c1.102,0.004,1.99,0.895,1.99,1.996
	v33.11c-1.182-0.688-2.535-1.107-4-1.107H41.999c-2.953,0-5.504,1.617-6.891,4H28.89c-1.387-2.383-3.938-4-6.891-4H8
	c-1.465,0-2.818,0.42-4,1.107V5.998c0-1.102,0.889-1.992,1.99-1.996H10c1.105,0,2-0.898,2-2c0-1.105-0.895-2-2-2H4v-0.004
	c-2.209,0-4,1.791-4,4v42.003V52c0,6.627,5.373,12,12,12h6c6.627,0,12-5.373,12-12v-5.999h4V52c0,6.627,5.373,12,12,12h5.999
	c6.627,0,12-5.373,12-12v-5.999V3.998C63.998,1.789,62.207-0.002,59.998-0.002z M25.999,52c0,4.416-3.582,8-8,8h-6
	c-4.417,0-8-3.584-8-8v-5.999c0-2.211,1.791-4,4-4h13.999c2.209,0,4,1.789,4,4V52z M59.998,52c0,4.416-3.582,8-8,8h-5.999
	c-4.418,0-8-3.584-8-8v-5.999c0-2.211,1.791-4,4-4h13.999c2.209,0,4,1.789,4,4V52z"/>
</svg>
