<?xml version="1.0" encoding="utf-8"?>
<!-- Generator: Adobe Illustrator 16.0.0, SVG Export Plug-In . SVG Version: 6.00 Build 0)  -->
<!DOCTYPE svg PUBLIC "-//W3C//DTD SVG 1.0//EN" "http://www.w3.org/TR/2001/REC-SVG-20010904/DTD/svg10.dtd">
<svg version="1.0" id="Layer_1" xmlns="http://www.w3.org/2000/svg" xmlns:xlink="http://www.w3.org/1999/xlink" x="0px" y="0px"
	 width="64px" height="64px" viewBox="0 0 64 64" enable-background="new 0 0 64 64" xml:space="preserve">
<path fill="#231F20" d="M32,0C14.326,0,0,14.326,0,32s14.326,32,32,32s32-14.326,32-32S49.674,0,32,0z M59.898,30h-9.953
	c-0.477-9.613-4.367-18.309-10.465-24.959C50.688,8.145,59.051,18.021,59.898,30z M30,5.189V30H18.062
	C18.604,20.15,23.105,11.365,30,5.189z M30,34v24.811C23.105,52.635,18.604,43.85,18.062,34H30z M34,58.811V34h11.938
	C45.396,43.85,40.895,52.635,34,58.811z M34,30V5.189C40.895,11.365,45.396,20.15,45.938,30H34z M24.52,5.041
	C18.422,11.691,14.531,20.387,14.055,30H4.102C4.949,18.021,13.312,8.145,24.52,5.041z M4.102,34h9.953
	c0.477,9.613,4.367,18.309,10.465,24.959C13.312,55.855,4.949,45.979,4.102,34z M39.48,58.959
	c6.098-6.65,9.988-15.346,10.465-24.959h9.953C59.051,45.979,50.688,55.855,39.48,58.959z"/>
</svg>
