<?xml version="1.0" encoding="utf-8"?>
<!-- Generator: Adobe Illustrator 16.0.0, SVG Export Plug-In . SVG Version: 6.00 Build 0)  -->
<!DOCTYPE svg PUBLIC "-//W3C//DTD SVG 1.0//EN" "http://www.w3.org/TR/2001/REC-SVG-20010904/DTD/svg10.dtd">
<svg version="1.0" id="Layer_1" xmlns="http://www.w3.org/2000/svg" xmlns:xlink="http://www.w3.org/1999/xlink" x="0px" y="0px"
	 width="64px" height="64px" viewBox="0 0 64 64" enable-background="new 0 0 64 64" xml:space="preserve">
<g>
	<path fill="#231F20" d="M56,0H8C5.789,0,4,1.789,4,4v56c0,2.211,1.789,4,4,4h48c2.211,0,4-1.789,4-4V4C60,1.789,58.211,0,56,0z
		 M56,58c0,1.105-0.895,2-2,2H10c-1.105,0-2-0.895-2-2V44h48V58z M56,40H8V6c0-1.105,0.895-2,2-2h44c1.105,0,2,0.895,2,2V40z"/>
	<circle fill="#231F20" cx="48" cy="52" r="2"/>
	<circle fill="#231F20" cx="40" cy="52" r="2"/>
</g>
</svg>
