<?xml version="1.0" encoding="utf-8"?>
<!-- Generator: Adobe Illustrator 16.0.0, SVG Export Plug-In . SVG Version: 6.00 Build 0)  -->
<!DOCTYPE svg PUBLIC "-//W3C//DTD SVG 1.0//EN" "http://www.w3.org/TR/2001/REC-SVG-20010904/DTD/svg10.dtd">
<svg version="1.0" id="Layer_1" xmlns="http://www.w3.org/2000/svg" xmlns:xlink="http://www.w3.org/1999/xlink" x="0px" y="0px"
	 width="64px" height="64px" viewBox="0 0 64 64" enable-background="new 0 0 64 64" xml:space="preserve">
<path fill="#231F20" d="M56,40h-4V26h2c1.105,0,2-0.895,2-2C56,10.746,45.254,0,32,0S8,10.746,8,24c0,1.105,0.895,2,2,2h2v14H8
	c-4.418,0-8,3.582-8,8v8c0,4.418,3.582,8,8,8h8c2.211,0,4-1.789,4-4V44c0-2.211-1.789-4-4-4V26h2c1.105,0,2-0.895,2-2
	c0-6.627,5.373-12,12-12s12,5.373,12,12c0,1.105,0.895,2,2,2h2v14c-2.211,0-4,1.789-4,4v16c0,2.211,1.789,4,4,4h8
	c4.418,0,8-3.582,8-8v-8C64,43.582,60.418,40,56,40z M4,56v-8c0-2.209,1.791-4,4-4v16C5.791,60,4,58.209,4,56z M16,58
	c0,1.105-0.895,2-2,2h-2V44h2c1.105,0,2,0.895,2,2V58z M32,8c-8.156,0-14.875,6.109-15.861,14h-4.037C13.105,11.893,21.631,4,32,4
	s18.895,7.893,19.898,18h-4.037C46.875,14.109,40.156,8,32,8z M50,60c-1.105,0-2-0.895-2-2V46c0-1.105,0.895-2,2-2h2v16H50z M60,56
	c0,2.209-1.791,4-4,4V44c2.209,0,4,1.791,4,4V56z"/>
</svg>
