<?xml version="1.0" encoding="utf-8"?>
<!-- Generator: Adobe Illustrator 16.0.0, SVG Export Plug-In . SVG Version: 6.00 Build 0)  -->
<!DOCTYPE svg PUBLIC "-//W3C//DTD SVG 1.0//EN" "http://www.w3.org/TR/2001/REC-SVG-20010904/DTD/svg10.dtd">
<svg version="1.0" id="Layer_1" xmlns="http://www.w3.org/2000/svg" xmlns:xlink="http://www.w3.org/1999/xlink" x="0px" y="0px"
	 width="64px" height="64px" viewBox="0 0 64 64" enable-background="new 0 0 64 64" xml:space="preserve">
<path fill="#231F20" d="M48,7.965c-4.418,0-8.418,1.793-11.312,4.688L32,17.309l-4.688-4.656C24.418,9.758,20.418,7.965,16,7.965
	c-8.836,0-16,7.164-16,16c0,4.418,1.57,7.258,5.75,11.438l23.422,23.426c1.562,1.562,4.094,1.562,5.656,0l23.359-23.363
	C62.32,31.332,64,28.383,64,23.965C64,15.129,56.836,7.965,48,7.965z M56,31.965l-24,24l-24-24c-1.484-1.484-4-4.082-4-8
	c0-6.627,5.373-12,12-12c3.562,0,6.764,1.551,8.963,4.02c0.539,0.607,4.6,5.98,7.037,5.98c2.531,0,6.52-5.4,7.074-6.018
	c2.195-2.443,5.381-3.982,8.926-3.982c6.627,0,12,5.373,12,12C60,27.92,58.023,29.941,56,31.965z"/>
</svg>
