<?xml version="1.0" encoding="utf-8"?>
<!-- Generator: Adobe Illustrator 16.0.0, SVG Export Plug-In . SVG Version: 6.00 Build 0)  -->
<!DOCTYPE svg PUBLIC "-//W3C//DTD SVG 1.0//EN" "http://www.w3.org/TR/2001/REC-SVG-20010904/DTD/svg10.dtd">
<svg version="1.0" id="Layer_1" xmlns="http://www.w3.org/2000/svg" xmlns:xlink="http://www.w3.org/1999/xlink" x="0px" y="0px"
	 width="64px" height="64px" viewBox="0 0 64 64" enable-background="new 0 0 64 64" xml:space="preserve">
<g>
	<path fill="#231F20" d="M60,12h-8V6c0-1.105-0.895-2-2-2h-8c-1.105,0-2,0.895-2,2v6H24V6c0-1.105-0.895-2-2-2h-8
		c-1.105,0-2,0.895-2,2v6H4c-2.211,0-4,1.789-4,4v40c0,2.211,1.789,4,4,4h56c2.211,0,4-1.789,4-4V16C64,13.789,62.211,12,60,12z
		 M44,8h4v8h-4V8z M16,8h4v8h-4V8z M60,54c0,1.105-0.895,2-2,2H6c-1.105,0-2-0.895-2-2V18c0-1.105,0.895-2,2-2h6v2
		c0,1.105,0.895,2,2,2h8c1.105,0,2-0.895,2-2v-2h16v2c0,1.105,0.895,2,2,2h8c1.105,0,2-0.895,2-2v-2h6c1.105,0,2,0.895,2,2V54z"/>
	<path fill="#231F20" d="M42,34h4c1.105,0,2-0.895,2-2s-0.895-2-2-2h-4c-1.105,0-2,0.895-2,2S40.895,34,42,34z"/>
	<path fill="#231F20" d="M50,38h-8c-1.105,0-2,0.895-2,2s0.895,2,2,2h8c1.105,0,2-0.895,2-2S51.105,38,50,38z"/>
	<path fill="#231F20" d="M26.473,38.633C28.602,37.195,30,34.762,30,32c0-4.418-3.582-8-8-8s-8,3.582-8,8
		c0,2.762,1.398,5.195,3.527,6.633c-5.684,1.738-7.342,6.488-7.424,6.734c-0.35,1.049,0.217,2.182,1.264,2.529
		c1.057,0.35,2.18-0.217,2.529-1.264C13.912,46.586,15.516,42,22,42c6.375,0,8.041,4.461,8.104,4.633C30.383,47.471,31.162,48,32,48
		c0.209,0,0.422-0.033,0.633-0.104c1.047-0.348,1.613-1.48,1.264-2.529C33.814,45.121,32.156,40.371,26.473,38.633z M22,28
		c2.209,0,4,1.791,4,4s-1.791,4-4,4s-4-1.791-4-4S19.791,28,22,28z"/>
</g>
</svg>
