<?xml version="1.0" encoding="utf-8"?>
<!-- Generator: Adobe Illustrator 16.0.0, SVG Export Plug-In . SVG Version: 6.00 Build 0)  -->
<!DOCTYPE svg PUBLIC "-//W3C//DTD SVG 1.0//EN" "http://www.w3.org/TR/2001/REC-SVG-20010904/DTD/svg10.dtd">
<svg version="1.0" id="Layer_1" xmlns="http://www.w3.org/2000/svg" xmlns:xlink="http://www.w3.org/1999/xlink" x="0px" y="0px"
	 width="64px" height="64px" viewBox="0 0 64 64" enable-background="new 0 0 64 64" xml:space="preserve">
<path fill="#231F20" d="M60,0H4C1.789,0,0,1.789,0,4v40c0,2.211,1.789,4,4,4h22v12h-8c-1.105,0-2,0.895-2,2s0.895,2,2,2h28
	c1.105,0,2-0.895,2-2s-0.895-2-2-2h-8V48h22c2.211,0,4-1.789,4-4V4C64,1.789,62.211,0,60,0z M34,60h-4V48h4V60z M60,42
	c0,1.105-0.895,2-2,2H6c-1.105,0-2-0.895-2-2v-2h56V42z M60,36H4V6c0-1.105,0.895-2,2-2h52c1.105,0,2,0.895,2,2V36z"/>
</svg>
