<?xml version="1.0" encoding="utf-8"?>
<!-- Generator: Adobe Illustrator 16.0.0, SVG Export Plug-In . SVG Version: 6.00 Build 0)  -->
<!DOCTYPE svg PUBLIC "-//W3C//DTD SVG 1.0//EN" "http://www.w3.org/TR/2001/REC-SVG-20010904/DTD/svg10.dtd">
<svg version="1.0" id="Layer_1" xmlns="http://www.w3.org/2000/svg" xmlns:xlink="http://www.w3.org/1999/xlink" x="0px" y="0px"
	 width="64px" height="64px" viewBox="0 0 64 64" enable-background="new 0 0 64 64" xml:space="preserve">
<g>
	<path fill="#231F20" d="M63.414,48.586l-20.33-20.33C43.672,26.271,44,24.176,44,22C44,9.85,34.15,0,22,0S0,9.85,0,22
		s9.85,22,22,22c2.176,0,4.271-0.328,6.256-0.916l2.33,2.33C30.961,45.789,31.469,46,32,46h4v4c0,1.105,0.895,2,2,2h4v4
		c0,1.105,0.895,2,2,2h4v4c0,1.105,0.895,2,2,2h12c1.105,0,2-0.895,2-2V50C64,49.469,63.789,48.961,63.414,48.586z M4,22
		c0-9.941,8.059-18,18-18s18,8.059,18,18s-8.059,18-18,18S4,31.941,4,22z M60,60h-8v-4c0-1.105-0.895-2-2-2h-4v-4
		c0-1.105-0.895-2-2-2h-4v-4c0-1.105-0.895-2-2-2h-5.172l-0.553-0.553c3.902-2.066,7.105-5.27,9.172-9.172L60,50.828V60z"/>
	<path fill="#231F20" d="M22,12c-5.514,0-10,4.486-10,10s4.486,10,10,10s10-4.486,10-10S27.514,12,22,12z M22,28
		c-3.309,0-6-2.691-6-6s2.691-6,6-6s6,2.691,6,6S25.309,28,22,28z"/>
</g>
</svg>
