<?xml version="1.0" encoding="utf-8"?>
<!-- Generator: Adobe Illustrator 16.0.0, SVG Export Plug-In . SVG Version: 6.00 Build 0)  -->
<!DOCTYPE svg PUBLIC "-//W3C//DTD SVG 1.0//EN" "http://www.w3.org/TR/2001/REC-SVG-20010904/DTD/svg10.dtd">
<svg version="1.0" id="Layer_1" xmlns="http://www.w3.org/2000/svg" xmlns:xlink="http://www.w3.org/1999/xlink" x="0px" y="0px"
	 width="64px" height="64px" viewBox="0 0 64 64" enable-background="new 0 0 64 64" xml:space="preserve">
<g>
	<path fill="#231F20" d="M38,0C23.641,0,12,11.641,12,26v23.172L0.586,60.586c-0.781,0.781-0.781,2.047,0,2.828
		C0.977,63.805,1.488,64,2,64s1.023-0.195,1.414-0.586L14.828,52H38c14.359,0,26-11.641,26-26V0H38z M60,26c0,12.15-9.85,22-22,22
		H16V26c0-12.15,9.85-22,22-22h22V26z"/>
	<path fill="#231F20" d="M36,14v11.172l-8,8V22c0-1.105-0.895-2-2-2s-2,0.895-2,2v15.172l-3.414,3.414
		c-0.781,0.781-0.781,2.047,0,2.828C20.977,43.805,21.488,44,22,44s1.023-0.195,1.414-0.586L26.828,40H42c1.105,0,2-0.895,2-2
		s-0.895-2-2-2H30.828l8-8H50c1.105,0,2-0.895,2-2s-0.895-2-2-2h-7.172l12.586-12.586c0.781-0.781,0.781-2.047,0-2.828
		s-2.047-0.781-2.828,0L40,21.172V14c0-1.105-0.895-2-2-2S36,12.895,36,14z"/>
</g>
</svg>
