<?xml version="1.0" encoding="utf-8"?>
<!-- Generator: Adobe Illustrator 16.0.0, SVG Export Plug-In . SVG Version: 6.00 Build 0)  -->
<!DOCTYPE svg PUBLIC "-//W3C//DTD SVG 1.0//EN" "http://www.w3.org/TR/2001/REC-SVG-20010904/DTD/svg10.dtd">
<svg version="1.0" id="Layer_1" xmlns="http://www.w3.org/2000/svg" xmlns:xlink="http://www.w3.org/1999/xlink" x="0px" y="0px"
	 width="64px" height="64px" viewBox="0 0 64 64" enable-background="new 0 0 64 64" xml:space="preserve">
<path fill="#231F20" d="M58.469,49.98C61.957,44.855,64,38.668,64,32s-2.045-12.857-5.533-17.984l0.4-0.4
	c0.783-0.783,0.783-2.045,0.002-2.83l-5.656-5.654c-0.777-0.781-2.045-0.781-2.828,0.002l-0.4,0.4C44.857,2.043,38.668,0,32,0
	S19.143,2.043,14.016,5.533l-0.4-0.4c-0.783-0.783-2.047-0.781-2.83-0.002l-5.654,5.654c-0.781,0.779-0.781,2.047,0.002,2.83
	l0.4,0.4C2.043,19.143,0,25.332,0,32s2.045,12.857,5.533,17.984l-0.402,0.402c-0.781,0.781-0.783,2.045,0,2.828l5.656,5.656
	c0.781,0.781,2.047,0.781,2.828,0l0.402-0.402C19.145,61.957,25.332,64,32,64s12.857-2.043,17.984-5.533l0.4,0.4
	c0.783,0.783,2.047,0.785,2.83,0.002l5.656-5.656c0.779-0.779,0.779-2.045,0-2.83L58.469,49.98z M60,32
	c0,5.559-1.65,10.715-4.447,15.066l-8.834-8.83C47.537,36.32,48,34.215,48,32s-0.463-4.316-1.279-6.23l8.83-8.836
	C58.35,21.285,60,26.441,60,32z M40.482,43.316l2.828-2.828l11.316,11.309l-2.828,2.828L40.482,43.316z M12.201,54.629l-2.828-2.828
	l11.312-11.316l2.828,2.828l-1.314,1.314l0,0L12.201,54.629z M9.375,12.201l2.826-2.826l11.316,11.309l-2.824,2.83l-1.318-1.318l0,0
	L9.375,12.201z M27.756,41.898L22.1,36.242c-0.418-0.418-0.973-0.594-1.52-0.566C20.207,34.518,20,33.283,20,32
	s0.207-2.518,0.58-3.678c0.547,0.029,1.102-0.146,1.521-0.566l5.658-5.658c0.42-0.42,0.596-0.973,0.566-1.52
	C29.484,20.205,30.719,20,32,20c1.283,0,2.518,0.207,3.678,0.58c-0.029,0.547,0.146,1.102,0.566,1.521l5.658,5.658
	c0.42,0.42,0.973,0.596,1.52,0.566C43.795,29.484,44,30.719,44,32c0,1.285-0.207,2.52-0.58,3.678
	c-0.547-0.029-1.102,0.146-1.521,0.566l-5.658,5.658c-0.418,0.418-0.594,0.973-0.564,1.52C34.516,43.793,33.283,44,32,44
	s-2.518-0.207-3.678-0.58C28.352,42.873,28.176,42.318,27.756,41.898z M51.799,9.375l2.826,2.826L43.316,23.518l-2.83-2.826
	l1.316-1.316l0,0L51.799,9.375z M32,4c5.561,0,10.717,1.65,15.068,4.449l-8.832,8.832C36.32,16.463,34.215,16,32,16
	s-4.316,0.463-6.23,1.279l-8.836-8.83C21.285,5.65,26.441,4,32,4z M4,32c0-5.559,1.65-10.715,4.449-15.068l8.832,8.832
	C16.463,27.68,16,29.783,16,32c0,2.215,0.463,4.318,1.281,6.234l-8.832,8.832C5.65,42.715,4,37.559,4,32z M32,60
	c-5.559,0-10.715-1.65-15.066-4.449l8.83-8.832C27.68,47.537,29.783,48,32,48c2.215,0,4.316-0.463,6.23-1.279l8.836,8.83
	C42.715,58.35,37.559,60,32,60z"/>
</svg>
