<?xml version="1.0" encoding="utf-8"?>
<!-- Generator: Adobe Illustrator 16.0.0, SVG Export Plug-In . SVG Version: 6.00 Build 0)  -->
<!DOCTYPE svg PUBLIC "-//W3C//DTD SVG 1.0//EN" "http://www.w3.org/TR/2001/REC-SVG-20010904/DTD/svg10.dtd">
<svg version="1.0" id="Layer_1" xmlns="http://www.w3.org/2000/svg" xmlns:xlink="http://www.w3.org/1999/xlink" x="0px" y="0px"
	 width="64px" height="64px" viewBox="0 0 64 64" enable-background="new 0 0 64 64" xml:space="preserve">
<path fill="#231F20" d="M32,0C18.746,0,8,10.746,8,24c0,9.68,5.744,17.992,14,21.781V60c0,2.211,1.789,4,4,4h12c2.211,0,4-1.789,4-4
	V45.781C50.256,41.992,56,33.68,56,24C56,10.746,45.254,0,32,0z M38,58c0,1.105-0.895,2-2,2h-8c-1.105,0-2-0.895-2-2v-2h12V58z
	 M38,52H26v-4h12V52z M40,42.318c0,0-2,0.869-2,1.682h-4V30.826l5.414-5.412c0.781-0.781,0.781-2.047,0-2.828
	c-0.783-0.781-2.047-0.781-2.828,0l-4.588,4.586l-4.584-4.586c-0.781-0.781-2.047-0.781-2.828,0c-0.781,0.783-0.781,2.047,0,2.828
	L30,30.83V44h-4c0-0.812-2-1.682-2-1.682C16.941,39.23,12,32.197,12,24c0-11.045,8.955-20,20-20s20,8.955,20,20
	C52,32.197,47.059,39.23,40,42.318z"/>
</svg>
