<?xml version="1.0" encoding="utf-8"?>
<!-- Generator: Adobe Illustrator 16.0.0, SVG Export Plug-In . SVG Version: 6.00 Build 0)  -->
<!DOCTYPE svg PUBLIC "-//W3C//DTD SVG 1.0//EN" "http://www.w3.org/TR/2001/REC-SVG-20010904/DTD/svg10.dtd">
<svg version="1.0" id="Layer_1" xmlns="http://www.w3.org/2000/svg" xmlns:xlink="http://www.w3.org/1999/xlink" x="0px" y="0px"
	 width="64px" height="64px" viewBox="0 0 64 64" enable-background="new 0 0 64 64" xml:space="preserve">
<g>
	<path fill="#231F20" d="M32,0C18.744,0,8,10.746,8,24c0,3.631,0.906,7.844,2.463,10.418c0.057,0.26,20.326,28.744,20.326,28.744
		C31.164,63.688,31.77,64,32.416,64c0.006,0,0.014,0,0.02,0c0.652-0.006,1.262-0.332,1.631-0.869c0,0,19.24-28.162,19.279-28.242
		C55.166,31.732,56,27.871,56,24C56,10.746,45.256,0,32,0z M49.943,32.869L32.381,58.512L14.043,32.838
		C12.594,30.469,12,27.113,12,24c0-11.047,8.955-20,20-20s20,8.953,20,20C52,27.113,51.406,30.5,49.943,32.869z"/>
	<path fill="#231F20" d="M32,12c-6.627,0-12,5.373-12,12s5.373,12,12,12s12-5.373,12-12S38.627,12,32,12z M32,32
		c-4.418,0-8-3.582-8-8s3.582-8,8-8s8,3.582,8,8S36.418,32,32,32z"/>
</g>
</svg>
