<?xml version="1.0" encoding="utf-8"?>
<!-- Generator: Adobe Illustrator 16.0.0, SVG Export Plug-In . SVG Version: 6.00 Build 0)  -->
<!DOCTYPE svg PUBLIC "-//W3C//DTD SVG 1.0//EN" "http://www.w3.org/TR/2001/REC-SVG-20010904/DTD/svg10.dtd">
<svg version="1.0" id="Layer_1" xmlns="http://www.w3.org/2000/svg" xmlns:xlink="http://www.w3.org/1999/xlink" x="0px" y="0px"
	 width="64px" height="64px" viewBox="0 0 64 64" enable-background="new 0 0 64 64" xml:space="preserve">
<g>
	<path fill="#231F20" d="M52,24h-4v-8c0-8.838-7.162-16-16-16S16,7.162,16,16v8h-4c-2.211,0-4,1.789-4,4v32c0,2.211,1.789,4,4,4h40
		c2.211,0,4-1.789,4-4V28C56,25.789,54.211,24,52,24z M20,16c0-6.627,5.373-12,12-12s12,5.373,12,12v8h-4v-8c0-4.418-3.582-8-8-8
		s-8,3.582-8,8v8h-4V16z M28,16c0-2.209,1.791-4,4-4s4,1.791,4,4v8h-8V16z M52,58c0,1.105-0.895,2-2,2H14c-1.105,0-2-0.895-2-2V30
		c0-1.105,0.895-2,2-2h36c1.105,0,2,0.895,2,2V58z"/>
	<path fill="#231F20" d="M32,36c-3.314,0-6,2.686-6,6c0,2.635,1.709,4.848,4.07,5.654C30.049,47.771,30,47.877,30,48v2
		c0,1.105,0.895,2,2,2s2-0.895,2-2v-2c0-0.123-0.049-0.229-0.07-0.346C36.291,46.848,38,44.635,38,42C38,38.686,35.314,36,32,36z
		 M32,44c-1.105,0-2-0.895-2-2s0.895-2,2-2s2,0.895,2,2S33.105,44,32,44z"/>
</g>
</svg>
