<?xml version="1.0" encoding="utf-8"?>
<!-- Generator: Adobe Illustrator 16.0.0, SVG Export Plug-In . SVG Version: 6.00 Build 0)  -->
<!DOCTYPE svg PUBLIC "-//W3C//DTD SVG 1.0//EN" "http://www.w3.org/TR/2001/REC-SVG-20010904/DTD/svg10.dtd">
<svg version="1.0" id="Layer_1" xmlns="http://www.w3.org/2000/svg" xmlns:xlink="http://www.w3.org/1999/xlink" x="0px" y="0px"
	 width="64px" height="64px" viewBox="0 0 64 64" enable-background="new 0 0 64 64" xml:space="preserve">
<g>
	<path fill="#231F20" d="M62.242,53.758L51.568,43.08C54.361,38.725,56,33.559,56,28C56,12.535,43.465,0,28,0S0,12.535,0,28
		s12.535,28,28,28c5.559,0,10.727-1.641,15.082-4.434l10.676,10.676c2.344,2.344,6.141,2.344,8.484,0S64.586,56.1,62.242,53.758z
		 M28,52C14.746,52,4,41.254,4,28S14.746,4,28,4s24,10.746,24,24S41.254,52,28,52z M59.414,59.414c-0.781,0.781-2.047,0.781-2.828,0
		L46.32,49.145c1.008-0.875,1.953-1.82,2.826-2.828l10.268,10.27C60.195,57.367,60.195,58.633,59.414,59.414z"/>
	<path fill="#231F20" d="M28,8c-1.105,0-2,0.895-2,2s0.895,2,2,2c8.836,0,16,7.164,16,16c0,1.105,0.895,2,2,2s2-0.895,2-2
		C48,16.955,39.045,8,28,8z"/>
</g>
</svg>
