<?xml version="1.0" encoding="utf-8"?>
<!-- Generator: Adobe Illustrator 16.0.0, SVG Export Plug-In . SVG Version: 6.00 Build 0)  -->
<!DOCTYPE svg PUBLIC "-//W3C//DTD SVG 1.0//EN" "http://www.w3.org/TR/2001/REC-SVG-20010904/DTD/svg10.dtd">
<svg version="1.0" id="Layer_1" xmlns="http://www.w3.org/2000/svg" xmlns:xlink="http://www.w3.org/1999/xlink" x="0px" y="0px"
	 width="64px" height="64px" viewBox="0 0 64 64" enable-background="new 0 0 64 64" xml:space="preserve">
<path fill="#231F20" d="M62.338,0.756C61.648,0.256,60.828,0,60.002,0c-0.426,0-0.854,0.068-1.268,0.205l-16.799,5.6L23.148,0.168
	C22.773,0.057,22.385,0,21.998,0c-0.428,0-0.854,0.068-1.264,0.205l-18,6C1.102,6.75,0,8.277,0,10v50
	c0,1.285,0.617,2.492,1.662,3.244C2.352,63.742,3.172,64,4,64c0.426,0,0.852-0.068,1.266-0.205l16.799-5.6l18.787,5.637
	C41.227,63.943,41.615,64,42.004,64c0.428,0,0.854-0.068,1.262-0.205l18-6C62.898,57.25,64,55.723,64,54V4
	C64,2.715,63.383,1.508,62.338,0.756z M24,4.602L40,9.4v49.998L24,54.6V4.602z M4,60V10l16-5.334v50L4,60z M60,54l-16,5.334v-50
	l15.994-5.332L60,4V54z"/>
</svg>
