<?xml version="1.0" encoding="utf-8"?>
<!-- Generator: Adobe Illustrator 16.0.0, SVG Export Plug-In . SVG Version: 6.00 Build 0)  -->
<!DOCTYPE svg PUBLIC "-//W3C//DTD SVG 1.0//EN" "http://www.w3.org/TR/2001/REC-SVG-20010904/DTD/svg10.dtd">
<svg version="1.0" id="Layer_1" xmlns="http://www.w3.org/2000/svg" xmlns:xlink="http://www.w3.org/1999/xlink" x="0px" y="0px"
	 width="64px" height="64px" viewBox="0 0 64 64" enable-background="new 0 0 64 64" xml:space="preserve">
<path fill="#231F20" d="M63.414,3.415c0.572-0.572,0.744-1.432,0.434-2.18C63.539,0.487,62.809,0.001,62,0.001H2
	c-0.809,0-1.539,0.486-1.848,1.234c-0.311,0.748-0.139,1.607,0.434,2.18L30,32.828V60H20c-1.105,0-2,0.895-2,2s0.895,2,2,2h24
	c1.105,0,2-0.895,2-2s-0.895-2-2-2H34V32.828L63.414,3.415z M57.172,4.001l-4,4H10.829l-4-4H57.172z M32,29.172L14.828,12h34.344
	L32,29.172z"/>
</svg>
