<?xml version="1.0" encoding="utf-8"?>
<!-- Generator: Adobe Illustrator 16.0.0, SVG Export Plug-In . SVG Version: 6.00 Build 0)  -->
<!DOCTYPE svg PUBLIC "-//W3C//DTD SVG 1.0//EN" "http://www.w3.org/TR/2001/REC-SVG-20010904/DTD/svg10.dtd">
<svg version="1.0" id="Layer_1" xmlns="http://www.w3.org/2000/svg" xmlns:xlink="http://www.w3.org/1999/xlink" x="0px" y="0px"
	 width="64px" height="64px" viewBox="0 0 64 64" enable-background="new 0 0 64 64" xml:space="preserve">
<g>
	<path fill="#231F20" d="M60,12H48V4c0-2.211-1.789-4-4-4H20c-2.211,0-4,1.789-4,4v8H4c-2.211,0-4,1.789-4,4v44c0,2.211,1.789,4,4,4
		h56c2.211,0,4-1.789,4-4V16C64,13.789,62.211,12,60,12z M20,6c0-1.105,0.895-2,2-2h20c1.105,0,2,0.895,2,2v6H20V6z M60,58
		c0,1.105-0.895,2-2,2H6c-1.105,0-2-0.895-2-2V18c0-1.105,0.895-2,2-2h52c1.105,0,2,0.895,2,2V58z"/>
	<path fill="#231F20" d="M44,32h-6v-6c0-1.105-0.895-2-2-2h-8c-1.105,0-2,0.895-2,2v6h-6c-1.105,0-2,0.895-2,2v8
		c0,1.105,0.895,2,2,2h6v6c0,1.105,0.895,2,2,2h8c1.105,0,2-0.895,2-2v-6h6c1.105,0,2-0.895,2-2v-8C46,32.895,45.105,32,44,32z
		 M42,40h-8v8h-4v-8h-8v-4h8v-8h4v8h8V40z"/>
</g>
</svg>
