<?xml version="1.0" encoding="utf-8"?>
<!-- Generator: Adobe Illustrator 16.0.0, SVG Export Plug-In . SVG Version: 6.00 Build 0)  -->
<!DOCTYPE svg PUBLIC "-//W3C//DTD SVG 1.0//EN" "http://www.w3.org/TR/2001/REC-SVG-20010904/DTD/svg10.dtd">
<svg version="1.0" id="Layer_1" xmlns="http://www.w3.org/2000/svg" xmlns:xlink="http://www.w3.org/1999/xlink" x="0px" y="0px"
	 width="64px" height="64px" viewBox="0 0 64 64" enable-background="new 0 0 64 64" xml:space="preserve">
<g>
	<path fill="#231F20" d="M56,24C56,10.746,45.254,0,32,0S8,10.746,8,24c0,7.111,3.111,13.48,8.025,17.875
		C16.023,41.918,16,41.955,16,42v20c0,0.75,0.418,1.436,1.084,1.779c0.666,0.342,1.469,0.283,2.078-0.152L32,54.457l12.838,9.17
		C45.184,63.875,45.59,64,46,64c0.312,0,0.627-0.074,0.916-0.221C47.582,63.436,48,62.75,48,62V42c0-0.045-0.021-0.082-0.025-0.125
		C52.889,37.48,56,31.111,56,24z M12,24c0-11.045,8.955-20,20-20s20,8.955,20,20s-8.955,20-20,20S12,35.045,12,24z M44,58.113
		l-10.838-7.74c-0.695-0.496-1.629-0.496-2.324,0L20,58.113V44.762C23.533,46.809,27.623,48,32,48s8.467-1.191,12-3.238V58.113z"/>
	<path fill="#231F20" d="M32,40c8.822,0,16-7.178,16-16S40.822,8,32,8s-16,7.178-16,16S23.178,40,32,40z M32,12
		c6.617,0,12,5.383,12,12s-5.383,12-12,12s-12-5.383-12-12S25.383,12,32,12z"/>
</g>
</svg>
