<?xml version="1.0" encoding="utf-8"?>
<!-- Generator: Adobe Illustrator 16.0.0, SVG Export Plug-In . SVG Version: 6.00 Build 0)  -->
<!DOCTYPE svg PUBLIC "-//W3C//DTD SVG 1.0//EN" "http://www.w3.org/TR/2001/REC-SVG-20010904/DTD/svg10.dtd">
<svg version="1.0" id="Layer_1" xmlns="http://www.w3.org/2000/svg" xmlns:xlink="http://www.w3.org/1999/xlink" x="0px" y="0px"
	 width="64px" height="64px" viewBox="0 0 64 64" enable-background="new 0 0 64 64" xml:space="preserve">
<g>
	<path fill="#231F20" d="M52,32c-1.105,0-2,0.895-2,2c0,9.941-8.059,18-18,18s-18-8.059-18-18c0-1.105-0.895-2-2-2s-2,0.895-2,2
		c0,10.066,6.77,18.535,16,21.15V60c0,2.209,1.791,4,4,4h4c2.209,0,4-1.791,4-4v-4.85C47.23,52.535,54,44.066,54,34
		C54,32.895,53.105,32,52,32z M34,58c0,1.105-0.895,2-2,2s-2-0.895-2-2v-2.102C30.66,55.959,31.324,56,32,56s1.34-0.041,2-0.102V58z
		"/>
	<path fill="#231F20" d="M32,48c7.732,0,14-6.268,14-14V14c0-7.732-6.268-14-14-14S18,6.268,18,14v20C18,41.732,24.268,48,32,48z
		 M22,32h2c1.105,0,2-0.895,2-2s-0.895-2-2-2h-2v-8h2c1.105,0,2-0.895,2-2s-0.895-2-2-2h-2v-2c0-5.523,4.477-10,10-10
		s10,4.477,10,10v2h-2c-1.105,0-2,0.895-2,2s0.895,2,2,2h2v8h-2c-1.105,0-2,0.895-2,2s0.895,2,2,2h2v2c0,5.523-4.477,10-10,10
		s-10-4.477-10-10V32z"/>
</g>
</svg>
