<?xml version="1.0" encoding="utf-8"?>
<!-- Generator: Adobe Illustrator 16.0.0, SVG Export Plug-In . SVG Version: 6.00 Build 0)  -->
<!DOCTYPE svg PUBLIC "-//W3C//DTD SVG 1.0//EN" "http://www.w3.org/TR/2001/REC-SVG-20010904/DTD/svg10.dtd">
<svg version="1.0" id="Layer_1" xmlns="http://www.w3.org/2000/svg" xmlns:xlink="http://www.w3.org/1999/xlink" x="0px" y="0px"
	 width="64px" height="64px" viewBox="0 0 64 64" enable-background="new 0 0 64 64" xml:space="preserve">
<g>
	<path fill="#231F20" d="M60,32H34V18c0-1.105-0.895-2-2-2s-2,0.895-2,2v14H4c-2.211,0-4,1.789-4,4v24c0,2.211,1.789,4,4,4h56
		c2.211,0,4-1.789,4-4V36C64,33.789,62.211,32,60,32z M60,58c0,1.105-0.895,2-2,2H6c-1.105,0-2-0.895-2-2V38c0-1.105,0.895-2,2-2h52
		c1.105,0,2,0.895,2,2V58z"/>
	<circle fill="#231F20" cx="48" cy="48" r="4"/>
	<circle fill="#231F20" cx="32" cy="48" r="4"/>
	<circle fill="#231F20" cx="16" cy="48" r="4"/>
	<path fill="#231F20" d="M32,8c-5.514,0-10,4.486-10,10c0,1.105,0.895,2,2,2s2-0.895,2-2c0-3.309,2.691-6,6-6s6,2.691,6,6
		c0,1.105,0.895,2,2,2s2-0.895,2-2C42,12.486,37.514,8,32,8z"/>
	<path fill="#231F20" d="M16,20c1.105,0,2-0.895,2-2c0-7.719,6.281-14,14-14s14,6.281,14,14c0,1.105,0.895,2,2,2s2-0.895,2-2
		c0-9.926-8.074-18-18-18S14,8.074,14,18C14,19.105,14.895,20,16,20z"/>
</g>
</svg>
