<?xml version="1.0" encoding="utf-8"?>
<!-- Generator: Adobe Illustrator 16.0.0, SVG Export Plug-In . SVG Version: 6.00 Build 0)  -->
<!DOCTYPE svg PUBLIC "-//W3C//DTD SVG 1.0//EN" "http://www.w3.org/TR/2001/REC-SVG-20010904/DTD/svg10.dtd">
<svg version="1.0" id="Layer_1" xmlns="http://www.w3.org/2000/svg" xmlns:xlink="http://www.w3.org/1999/xlink" x="0px" y="0px"
	 width="64px" height="64px" viewBox="0 0 64 64" enable-background="new 0 0 64 64" xml:space="preserve">
<path fill="#231F20" d="M63.415,20.584l-20-20c-0.781-0.781-2.047-0.781-2.828,0l-7.566,7.562C32.688,8.06,32.349,7.998,32,7.998H12
	c-1.957,0-3.625,1.414-3.945,3.344l-8,48.002c-0.211,1.273,0.203,2.57,1.117,3.484C1.929,63.586,2.949,64,4,64
	c0.219,0,0.438-0.02,0.656-0.055l48.001-8c1.93-0.32,3.344-1.988,3.344-3.945V32c0-0.35-0.062-0.691-0.152-1.023l7.566-7.564
	C64.196,22.631,64.196,21.365,63.415,20.584z M52.001,52L7.394,59.436l20.021-20.021c0.006-0.006,0.006-0.014,0.012-0.018
	c0.783,0.375,1.649,0.602,2.573,0.602c3.31,0,6.001-2.691,6.001-6s-2.691-6-6.001-6s-6.001,2.691-6.001,6
	c0,0.926,0.229,1.793,0.605,2.578c-0.006,0.004-0.012,0.004-0.018,0.01L4.566,56.607L12,11.998h20L52.001,32V52z M27.999,33.998
	c0-1.104,0.897-2,2.001-2s2,0.896,2,2s-0.896,2-2,2S27.999,35.102,27.999,33.998z M53.415,27.756L36.243,10.583l5.758-5.758
	l17.172,17.172L53.415,27.756z"/>
</svg>
