<?xml version="1.0" encoding="utf-8"?>
<!-- Generator: Adobe Illustrator 16.0.0, SVG Export Plug-In . SVG Version: 6.00 Build 0)  -->
<!DOCTYPE svg PUBLIC "-//W3C//DTD SVG 1.0//EN" "http://www.w3.org/TR/2001/REC-SVG-20010904/DTD/svg10.dtd">
<svg version="1.0" id="Layer_1" xmlns="http://www.w3.org/2000/svg" xmlns:xlink="http://www.w3.org/1999/xlink" x="0px" y="0px"
	 width="64px" height="64px" viewBox="0 0 64 64" enable-background="new 0 0 64 64" xml:space="preserve">
<path fill="#231F20" d="M62.828,12.485L51.514,1.17c-1.564-1.562-4.094-1.562-5.656,0c0,0-44.654,44.653-45.256,45.256
	S0,47.999,0,47.999v14c0,1.105,0.895,2,2,2h14c0,0,0.895,0.078,1.572-0.602s45.256-45.257,45.256-45.257
	C64.391,16.579,64.391,14.049,62.828,12.485z M5.996,59.999L4,58.003v-9.176l11.172,11.172H5.996z M18.07,57.241L6.758,45.929
	l27.785-27.788l11.314,11.314L18.07,57.241z M48.686,26.627L37.371,15.313l2.828-2.828l11.314,11.314L48.686,26.627z M58.584,16.727
	l-4.242,4.244L43.027,9.657l4.244-4.242c0.781-0.783,2.047-0.783,2.828-0.002l8.484,8.486C59.367,14.68,59.367,15.946,58.584,16.727
	z"/>
</svg>
