<?xml version="1.0" encoding="utf-8"?>
<!-- Generator: Adobe Illustrator 16.0.0, SVG Export Plug-In . SVG Version: 6.00 Build 0)  -->
<!DOCTYPE svg PUBLIC "-//W3C//DTD SVG 1.0//EN" "http://www.w3.org/TR/2001/REC-SVG-20010904/DTD/svg10.dtd">
<svg version="1.0" id="Layer_1" xmlns="http://www.w3.org/2000/svg" xmlns:xlink="http://www.w3.org/1999/xlink" x="0px" y="0px"
	 width="64px" height="64px" viewBox="0 0 64 64" enable-background="new 0 0 64 64" xml:space="preserve">
<g>
	<path fill="#231F20" d="M60,30H48c-1.105,0-2,0.895-2,2s0.895,2,2,2h12c1.105,0,2-0.895,2-2S61.105,30,60,30z"/>
	<path fill="#231F20" d="M46.756,22.934l11.275-4.102c1.039-0.379,1.574-1.525,1.195-2.564c-0.377-1.039-1.523-1.572-2.562-1.195
		l-11.277,4.104c-1.037,0.379-1.572,1.525-1.195,2.564C44.57,22.779,45.717,23.312,46.756,22.934z"/>
	<path fill="#231F20" d="M58.031,45.172l-11.277-4.107c-1.039-0.377-2.184,0.156-2.562,1.195s0.156,2.186,1.195,2.562l11.277,4.105
		c1.039,0.379,2.184-0.156,2.562-1.195S59.07,45.549,58.031,45.172z"/>
	<path fill="#231F20" d="M30,0H14c-0.52,0-1.039,0.105-1.527,0.309c-0.492,0.203-0.938,0.496-1.309,0.871C10.766,1.578,2,12,2,32
		s8.316,29.688,8.672,30.219c0.113,0.172,0.262,0.309,0.395,0.457c0.062,0.066,0.109,0.137,0.176,0.199
		c0.328,0.316,0.699,0.562,1.102,0.742c0.086,0.043,0.176,0.07,0.266,0.102C13.055,63.883,13.52,64,13.992,64C13.996,64,14,64,14,64
		h12h4c2.211,0,4-1.789,4-4V44c0-2.211-1.789-4-4-4h-8V24h8c2.211,0,4-1.789,4-4V4C34,1.789,32.211,0,30,0z M30,44v16h-4V44H30z
		 M18,24v16c0,2.209,1.791,4,4,4v16h-7.908c-0.025-0.008-0.051-0.016-0.076-0.025c-0.012-0.014-0.023-0.027-0.037-0.041
		l-0.104-0.111c-0.043-0.059-0.096-0.127-0.156-0.207C11.908,57.254,6,48.279,6,32c0-17.611,7.131-26.918,8.014-28H22v16
		C19.791,20,18,21.791,18,24z M30,20h-4V4h4V20z"/>
</g>
</svg>
