<?xml version="1.0" encoding="utf-8"?>
<!-- Generator: Adobe Illustrator 16.0.0, SVG Export Plug-In . SVG Version: 6.00 Build 0)  -->
<!DOCTYPE svg PUBLIC "-//W3C//DTD SVG 1.0//EN" "http://www.w3.org/TR/2001/REC-SVG-20010904/DTD/svg10.dtd">
<svg version="1.0" id="Layer_1" xmlns="http://www.w3.org/2000/svg" xmlns:xlink="http://www.w3.org/1999/xlink" x="0px" y="0px"
	 width="64px" height="64px" viewBox="0 0 64 64" enable-background="new 0 0 64 64" xml:space="preserve">
<g>
	<path fill="#231F20" d="M20,12c-4.418,0-8,3.582-8,8s3.582,8,8,8s8-3.582,8-8S24.418,12,20,12z M20,24c-2.209,0-4-1.791-4-4
		s1.791-4,4-4s4,1.791,4,4S22.209,24,20,24z"/>
	<path fill="#231F20" d="M60,0H4C1.789,0,0,1.789,0,4v56c0,2.211,1.789,4,4,4h56c2.211,0,4-1.789,4-4V4C64,1.789,62.211,0,60,0z
		 M4,58c0,0.555,0.227,1.055,0.59,1.418C4.225,59.055,4,58.555,4,58z M60,58c0,1.105-0.895,2-2,2H6c-0.551,0-1.049-0.223-1.41-0.582
		l14.002-14.002c0.781-0.781,2.047-0.781,2.828,0c0,0,1.662,1.662,3.758,3.76c2.096,2.094,3.529,2.125,5.656,0
		c2.127-2.129,11.758-11.76,11.758-11.76c0.781-0.781,2.047-0.781,2.828,0L60,51.996V58z M60,46.34L46.834,33.176
		c-1.562-1.566-4.094-1.566-5.656,0l-13.172,13.17l-5.172-5.17c-1.562-1.566-4.094-1.566-5.656,0L4,54.352V6c0-1.105,0.895-2,2-2h52
		c1.105,0,2,0.895,2,2V46.34z"/>
</g>
</svg>
