<?xml version="1.0" encoding="utf-8"?>
<!-- Generator: Adobe Illustrator 16.0.0, SVG Export Plug-In . SVG Version: 6.00 Build 0)  -->
<!DOCTYPE svg PUBLIC "-//W3C//DTD SVG 1.0//EN" "http://www.w3.org/TR/2001/REC-SVG-20010904/DTD/svg10.dtd">
<svg version="1.0" id="Layer_1" xmlns="http://www.w3.org/2000/svg" xmlns:xlink="http://www.w3.org/1999/xlink" x="0px" y="0px"
	 width="64px" height="64px" viewBox="0 0 64 64" enable-background="new 0 0 64 64" xml:space="preserve">
<g>
	<path fill="#231F20" d="M60,12c0,0-7.438,0-9.172,0s-3.43-1.43-3.43-1.43s-3.375-3.375-4.969-4.969S39.531,4,39,4H25
		c-0.531,0-1.852,0.023-3.008,1.18s-5.391,5.391-5.391,5.391S15.094,12,13.172,12S4,12,4,12c-2.211,0-4,1.789-4,4v40
		c0,2.211,1.789,4,4,4h56c2.211,0,4-1.789,4-4V16C64,13.789,62.211,12,60,12z M60,54c0,1.105-0.895,2-2,2H6c-1.105,0-2-0.895-2-2V18
		c0-1.105,0.895-2,2-2c0,0,7.281,0,9,0s2.633-0.805,3.023-1.195L24.828,8h14.344l6.883,6.883C46.445,15.273,47.562,16,49,16s9,0,9,0
		c1.105,0,2,0.895,2,2V54z"/>
	<path fill="#231F20" d="M32,20c-8.836,0-16,7.164-16,16s7.164,16,16,16s16-7.164,16-16S40.836,20,32,20z M32,48
		c-6.627,0-12-5.373-12-12s5.373-12,12-12s12,5.373,12,12S38.627,48,32,48z"/>
	<circle fill="#231F20" cx="54" cy="22" r="2"/>
	<path fill="#231F20" d="M32,28c-1.105,0-2,0.895-2,2s0.895,2,2,2c2.209,0,4,1.791,4,4c0,1.105,0.895,2,2,2s2-0.895,2-2
		C40,31.582,36.418,28,32,28z"/>
</g>
</svg>
