<?xml version="1.0" encoding="utf-8"?>
<!-- Generator: Adobe Illustrator 16.0.0, SVG Export Plug-In . SVG Version: 6.00 Build 0)  -->
<!DOCTYPE svg PUBLIC "-//W3C//DTD SVG 1.0//EN" "http://www.w3.org/TR/2001/REC-SVG-20010904/DTD/svg10.dtd">
<svg version="1.0" id="Layer_1" xmlns="http://www.w3.org/2000/svg" xmlns:xlink="http://www.w3.org/1999/xlink" x="0px" y="0px"
	 width="64px" height="64px" viewBox="0 0 64 64" enable-background="new 0 0 64 64" xml:space="preserve">
<path fill="#231F20" d="M60,0H4C1.789,0,0,1.789,0,4v56c0,2.211,1.789,4,4,4h56c2.211,0,4-1.789,4-4V4C64,1.789,62.211,0,60,0z
	 M46,4v34h-8V4H46z M26,4v34h-8V4H26z M6,60c-1.105,0-2-0.895-2-2V6c0-1.105,0.895-2,2-2h8v36c0,1.105,0.895,2,2,2h4v18H6z M24,60
	V42h4c1.105,0,2-0.895,2-2V4h4v36c0,1.105,0.895,2,2,2h4v18H24z M60,58c0,1.105-0.895,2-2,2H44V42h4c1.105,0,2-0.895,2-2V4h8
	c1.105,0,2,0.895,2,2V58z"/>
</svg>
