<?xml version="1.0" encoding="utf-8"?>
<!-- Generator: Adobe Illustrator 16.0.0, SVG Export Plug-In . SVG Version: 6.00 Build 0)  -->
<!DOCTYPE svg PUBLIC "-//W3C//DTD SVG 1.0//EN" "http://www.w3.org/TR/2001/REC-SVG-20010904/DTD/svg10.dtd">
<svg version="1.0" id="Layer_1" xmlns="http://www.w3.org/2000/svg" xmlns:xlink="http://www.w3.org/1999/xlink" x="0px" y="0px"
	 width="64px" height="64px" viewBox="0 0 64 64" enable-background="new 0 0 64 64" xml:space="preserve">
<g>
	<path d="M64,20C64,8.953,55.047,0,44,0c-5.449,0-10.375,2.191-13.98,5.723L30,5.703L5.879,29.84C2.25,33.461,0,38.465,0,44
		c0,11.047,8.953,20,20,20c5.535,0,10.539-2.25,14.16-5.879L58.297,34l-0.02-0.02C61.809,30.375,64,25.445,64,20z M31.328,55.297
		C28.301,58.328,24.279,60,20,60c-8.822,0-16-7.178-16-16c0-4.277,1.67-8.301,4.709-11.332l10.561-10.57L41.902,44.73L31.328,55.297
		z M55.137,31.504L44.73,41.902L22.098,19.27L32.496,8.863c0.111-0.086,0.219-0.182,0.322-0.283C35.834,5.627,39.805,4,44,4
		c8.822,0,16,7.178,16,16c0,4.195-1.627,8.168-4.58,11.182C55.318,31.285,55.225,31.391,55.137,31.504z"/>
	<path d="M44,8c-1.105,0-2,0.895-2,2s0.895,2,2,2c4.418,0,8,3.582,8,8c0,1.105,0.895,2,2,2s2-0.895,2-2C56,13.373,50.627,8,44,8z"/>
</g>
</svg>
