<?xml version="1.0" encoding="utf-8"?>
<!-- Generator: Adobe Illustrator 16.0.0, SVG Export Plug-In . SVG Version: 6.00 Build 0)  -->
<!DOCTYPE svg PUBLIC "-//W3C//DTD SVG 1.0//EN" "http://www.w3.org/TR/2001/REC-SVG-20010904/DTD/svg10.dtd">
<svg version="1.0" id="Layer_1" xmlns="http://www.w3.org/2000/svg" xmlns:xlink="http://www.w3.org/1999/xlink" x="0px" y="0px"
	 width="64px" height="64px" viewBox="0 0 64 64" enable-background="new 0 0 64 64" xml:space="preserve">
<path fill="#231F20" d="M32,4c1.664,0,2.99,0.596,4.055,1.818c1.668,1.922,2.121,4.652,1.984,5.623l-0.008,0.051l-0.006,0.051
	l-1.033,8.994L60,31.273V36H35.729l-1.803,20.756L37.172,60H26.828l3.246-3.246L28.27,36H4v-2.801l23.027-12.281l-1.049-9.225
	c-0.127-1.059,0.379-3.986,2.127-5.959C29.154,4.551,30.391,4,32,4 M32,0c-7.91,0-10.416,8.668-9.992,12.174l0.738,6.494
	L1.059,30.234C0.406,30.582,0,31.262,0,32v6c0,1.105,0.895,2,2,2h22.602l1.326,15.244l-5.342,5.342
	c-0.572,0.572-0.744,1.432-0.434,2.18C20.461,63.514,21.191,64,22,64h20c0.006,0,0.01,0,0.016,0c0.008,0,0.018,0,0.023,0
	c1.105,0,2-0.895,2-2c0-0.674-0.332-1.27-0.842-1.633l-5.125-5.123L39.396,40H62c1.105,0,2-0.895,2-2v-8
	c0-0.777-0.449-1.484-1.154-1.812L41.295,18.131L42,12C42.5,8.459,39.91,0,32,0L32,0z"/>
</svg>
