<?xml version="1.0" encoding="utf-8"?>
<!-- Generator: Adobe Illustrator 16.0.0, SVG Export Plug-In . SVG Version: 6.00 Build 0)  -->
<!DOCTYPE svg PUBLIC "-//W3C//DTD SVG 1.0//EN" "http://www.w3.org/TR/2001/REC-SVG-20010904/DTD/svg10.dtd">
<svg version="1.0" id="Layer_1" xmlns="http://www.w3.org/2000/svg" xmlns:xlink="http://www.w3.org/1999/xlink" x="0px" y="0px"
	 width="64px" height="64px" viewBox="0 0 64 64" enable-background="new 0 0 64 64" xml:space="preserve">
<g>
	<path fill="#231F20" d="M59.999,3.999H34v-2c0-1.105-0.895-2-2-2s-2,0.895-2,2v2H4c-2.211,0-4,1.789-4,4v40c0,2.211,1.789,4,4,4
		h21.465l-5.197,8.999c-0.553,0.959-0.225,2.18,0.732,2.732s2.18,0.227,2.732-0.732l6.352-10.999h3.834l6.352,10.999
		c0.553,0.957,1.773,1.285,2.73,0.732c0.959-0.553,1.285-1.775,0.734-2.732l-5.197-8.999h21.462c2.211,0,4-1.789,4-4v-40
		C63.999,5.788,62.21,3.999,59.999,3.999z M59.999,45.999c0,1.105-0.895,2-2,2H6c-1.105,0-2-0.895-2-2v-36c0-1.105,0.895-2,2-2
		h51.999c1.105,0,2,0.895,2,2V45.999z"/>
	<path fill="#231F20" d="M36,19.999h-8c-1.105,0-2,0.895-2,2v22h12v-22C38,20.894,37.105,19.999,36,19.999z M34,39.999h-4v-16h4
		V39.999z"/>
	<path fill="#231F20" d="M52,11.999h-8c-1.105,0-2,0.895-2,2v30h11.999v-30C53.999,12.894,53.104,11.999,52,11.999z M50,39.999h-4
		v-24h4V39.999z"/>
	<path fill="#231F20" d="M20,27.999h-8c-1.105,0-2,0.895-2,2v14h12v-14C22,28.894,21.105,27.999,20,27.999z M18,39.999h-4v-8h4
		V39.999z"/>
</g>
</svg>
