<?xml version="1.0" encoding="utf-8"?>
<!-- Generator: Adobe Illustrator 16.0.0, SVG Export Plug-In . SVG Version: 6.00 Build 0)  -->
<!DOCTYPE svg PUBLIC "-//W3C//DTD SVG 1.0//EN" "http://www.w3.org/TR/2001/REC-SVG-20010904/DTD/svg10.dtd">
<svg version="1.0" id="Layer_1" xmlns="http://www.w3.org/2000/svg" xmlns:xlink="http://www.w3.org/1999/xlink" x="0px" y="0px"
	 width="64px" height="64px" viewBox="0 0 64 64" enable-background="new 0 0 64 64" xml:space="preserve">
<path fill="#231F20" d="M60,12H44.891l0,0C45.578,10.82,46,9.465,46,8c0-4.418-3.582-8-8-8c-2.402,0-4.533,1.082-6,2.76
	C30.533,1.082,28.402,0,26,0c-4.418,0-8,3.582-8,8c0,1.465,0.422,2.82,1.109,4l0,0H4c-2.211,0-4,1.789-4,4v12c0,2.211,1.789,4,4,4
	v28c0,2.211,1.789,4,4,4h48c2.211,0,4-1.789,4-4V32c2.211,0,4-1.789,4-4V16C64,13.789,62.211,12,60,12z M26,60H10
	c-1.105,0-2-0.895-2-2V32h18V60z M26,28H6c-1.105,0-2-0.895-2-2v-8c0-1.105,0.895-2,2-2h20V28z M22,8c0-2.209,1.791-4,4-4
	s4,1.791,4,4v4h-4C23.791,12,22,10.209,22,8z M34,60h-4V32h4V60z M34,28h-4V16h4V28z M34,8c0-2.209,1.791-4,4-4s4,1.791,4,4
	s-1.791,4-4,4h-4V8z M56,58c0,1.105-0.895,2-2,2H38V32h18V58z M60,26c0,1.105-0.895,2-2,2H38V16h20c1.105,0,2,0.895,2,2V26z"/>
</svg>
