<?xml version="1.0" encoding="utf-8"?>
<!-- Generator: Adobe Illustrator 16.0.0, SVG Export Plug-In . SVG Version: 6.00 Build 0)  -->
<!DOCTYPE svg PUBLIC "-//W3C//DTD SVG 1.0//EN" "http://www.w3.org/TR/2001/REC-SVG-20010904/DTD/svg10.dtd">
<svg version="1.0" id="Layer_1" xmlns="http://www.w3.org/2000/svg" xmlns:xlink="http://www.w3.org/1999/xlink" x="0px" y="0px"
	 width="64px" height="64px" viewBox="0 0 64 64" enable-background="new 0 0 64 64" xml:space="preserve">
<g>
	<path fill="#231F20" d="M62.828,33.172l-32-32C30.078,0.422,29.061,0,28,0H4C1.791,0,0,1.791,0,4v24
		c0,1.061,0.422,2.078,1.172,2.828l32,32C33.953,63.609,34.977,64,36,64s2.047-0.391,2.828-1.172l24-24
		C64.391,37.266,64.391,34.734,62.828,33.172z M36,60L4,28V4h24l32,32L36,60z"/>
	<path fill="#231F20" d="M18,12c-3.314,0-6,2.688-6,6s2.686,6,6,6s6-2.688,6-6S21.314,12,18,12z M18,20c-1.105,0-2-0.895-2-2
		s0.895-2,2-2s2,0.895,2,2S19.105,20,18,20z"/>
	<path fill="#231F20" d="M32.586,45.414C32.977,45.805,33.488,46,34,46s1.023-0.195,1.414-0.586l10-10
		c0.781-0.781,0.781-2.047,0-2.828s-2.047-0.781-2.828,0l-10,10C31.805,43.367,31.805,44.633,32.586,45.414z"/>
	<path fill="#231F20" d="M26.586,39.414C26.977,39.805,27.488,40,28,40s1.023-0.195,1.414-0.586l10-10
		c0.781-0.781,0.781-2.047,0-2.828s-2.047-0.781-2.828,0l-10,10C25.805,37.367,25.805,38.633,26.586,39.414z"/>
</g>
</svg>
