<?xml version="1.0" encoding="utf-8"?>
<!-- Generator: Adobe Illustrator 16.0.0, SVG Export Plug-In . SVG Version: 6.00 Build 0)  -->
<!DOCTYPE svg PUBLIC "-//W3C//DTD SVG 1.0//EN" "http://www.w3.org/TR/2001/REC-SVG-20010904/DTD/svg10.dtd">
<svg version="1.0" id="Layer_1" xmlns="http://www.w3.org/2000/svg" xmlns:xlink="http://www.w3.org/1999/xlink" x="0px" y="0px"
	 width="64px" height="64px" viewBox="0 0 64 64" enable-background="new 0 0 64 64" xml:space="preserve">
<g>
	<path fill="#231F20" d="M60,12h-8V2c0-1.105-0.895-2-2-2H14c-1.105,0-2,0.895-2,2v10H4c-2.211,0-4,1.789-4,4v32
		c0,2.211,1.789,4,4,4h8v10c0,1.105,0.895,2,2,2h36c1.105,0,2-0.895,2-2V52h8c2.211,0,4-1.789,4-4V16C64,13.789,62.211,12,60,12z
		 M16,4h32v8H16V4z M48,60H16V36h32V60z M60,46c0,1.105-0.895,2-2,2h-6V34c0-1.105-0.895-2-2-2H14c-1.105,0-2,0.895-2,2v14H6
		c-1.105,0-2-0.895-2-2V18c0-1.105,0.895-2,2-2h52c1.105,0,2,0.895,2,2V46z"/>
	<circle fill="#231F20" cx="54" cy="22" r="2"/>
	<circle fill="#231F20" cx="46" cy="22" r="2"/>
</g>
</svg>
