<?xml version="1.0" encoding="utf-8"?>
<!-- Generator: Adobe Illustrator 16.0.0, SVG Export Plug-In . SVG Version: 6.00 Build 0)  -->
<!DOCTYPE svg PUBLIC "-//W3C//DTD SVG 1.0//EN" "http://www.w3.org/TR/2001/REC-SVG-20010904/DTD/svg10.dtd">
<svg version="1.0" id="Layer_1" xmlns="http://www.w3.org/2000/svg" xmlns:xlink="http://www.w3.org/1999/xlink" x="0px" y="0px"
	 width="64px" height="64px" viewBox="0 0 64 64" enable-background="new 0 0 64 64" xml:space="preserve">
<path fill="#231F20" d="M50,0H14c-2.209,0-4,1.791-4,4v56c0,1.617,0.975,3.076,2.469,3.695c1.496,0.619,3.213,0.277,4.359-0.867
	L32,47.656l15.172,15.172C47.938,63.594,48.959,64,50,64c0.516,0,1.035-0.1,1.531-0.305C53.025,63.076,54,61.617,54,60V4
	C54,1.791,52.209,0,50,0z M50,57c0,1.938-0.895,2.105-2.002,0.998S34,44,34,44c-0.781-0.781-1.217-1-2-1c-0.695,0-1.219,0.219-2,1
	c0,0-13.125,13.125-14,14s-2,0.75-2-1c0-1.244,0-26.508,0-41h36C50,30.453,50,55.623,50,57z M50,12H14c0-3.666,0-6,0-6
	c0-1.105,0.895-2,2-2h32c1.105,0,2,0.895,2,2C50,6,50,8.334,50,12z"/>
</svg>
