<?xml version="1.0" encoding="utf-8"?>
<!-- Generator: Adobe Illustrator 16.0.0, SVG Export Plug-In . SVG Version: 6.00 Build 0)  -->
<!DOCTYPE svg PUBLIC "-//W3C//DTD SVG 1.0//EN" "http://www.w3.org/TR/2001/REC-SVG-20010904/DTD/svg10.dtd">
<svg version="1.0" id="Layer_1" xmlns="http://www.w3.org/2000/svg" xmlns:xlink="http://www.w3.org/1999/xlink" x="0px" y="0px"
	 width="64px" height="64px" viewBox="0 0 64 64" enable-background="new 0 0 64 64" xml:space="preserve">
<g>
	<path fill="#231F20" d="M60,48l-10.145-5.797C49.943,40.273,50,38.223,50,36C50,16,40,4,32,0c-8,4-18,16-18,36
		c0,2.223,0.057,4.273,0.145,6.203L4,48c-2.291,1.393-4,2.461-4,5.004V60c0,2.211,1.789,4,4,4h56c2.211,0,4-1.789,4-4v-6.998
		C64,50.334,62.32,49.391,60,48z M4,60v-6.996c0-0.08,0.006-0.127,0.002-0.135c0.229-0.324,1.334-1,2.029-1.424l8.396-4.797
		c0.52,6.189,1.424,10.551,2.195,13.352H4z M43.211,60H20.783C19.729,56.562,18,48.949,18,36c0-17.504,8.111-27.461,14-31.377
		C37.889,8.539,46,18.496,46,36C46,48.912,44.266,56.551,43.211,60z M60,60H47.377c0.771-2.801,1.676-7.162,2.195-13.352
		l8.371,4.783l0.16,0.096c0.723,0.432,1.713,1.023,1.877,1.23c0,0,0.02,0.07,0.02,0.244V60z"/>
	<path fill="#231F20" d="M26,26c0,3.312,2.686,6,6,6s6-2.688,6-6s-2.686-6-6-6S26,22.688,26,26z M34,26c0,1.105-0.895,2-2,2
		s-2-0.895-2-2s0.895-2,2-2S34,24.895,34,26z"/>
</g>
</svg>
