<?xml version="1.0" encoding="utf-8"?>
<!-- Generator: Adobe Illustrator 16.0.0, SVG Export Plug-In . SVG Version: 6.00 Build 0)  -->
<!DOCTYPE svg PUBLIC "-//W3C//DTD SVG 1.0//EN" "http://www.w3.org/TR/2001/REC-SVG-20010904/DTD/svg10.dtd">
<svg version="1.0" id="Layer_1" xmlns="http://www.w3.org/2000/svg" xmlns:xlink="http://www.w3.org/1999/xlink" x="0px" y="0px"
	 width="64px" height="64px" viewBox="0 0 64 64" enable-background="new 0 0 64 64" xml:space="preserve">
<path fill="#231F20" d="M62.837,17.979L46.018,1.158c-1.555-1.551-4.058-1.551-5.608,0L1.157,40.408
	c-1.551,1.551-1.551,4.057,0,5.609l16.821,16.82c1.55,1.549,4.057,1.549,5.607,0l39.251-39.25
	C64.388,22.037,64.388,19.529,62.837,17.979z M58.634,22.186l-36.45,36.448c-0.773,0.773-2.027,0.773-2.804-0.002L5.362,44.613
	c-0.775-0.775-0.775-2.027,0-2.805l4.207-4.205l2.803,2.805c0.775,0.773,2.029,0.775,2.805,0c0.773-0.775,0.773-2.031,0-2.805
	l-2.805-2.802l5.607-5.607l2.807,2.805c0.773,0.773,2.023,0.773,2.801,0c0.777-0.775,0.777-2.031,0-2.805l-2.805-2.805l5.609-5.608
	l2.805,2.807c0.773,0.775,2.026,0.775,2.8,0c0.777-0.777,0.777-2.029,0-2.803l-2.8-2.807l5.604-5.607l2.805,2.805
	c0.773,0.773,2.027,0.773,2.805,0c0.773-0.775,0.773-2.029,0-2.805l-2.805-2.803l4.203-4.208c0.777-0.773,2.03-0.773,2.804,0
	L58.63,19.381C59.407,20.156,59.407,21.41,58.634,22.186z"/>
</svg>
