<?xml version="1.0" encoding="utf-8"?>
<!-- Generator: Adobe Illustrator 16.0.0, SVG Export Plug-In . SVG Version: 6.00 Build 0)  -->
<!DOCTYPE svg PUBLIC "-//W3C//DTD SVG 1.0//EN" "http://www.w3.org/TR/2001/REC-SVG-20010904/DTD/svg10.dtd">
<svg version="1.0" id="Layer_1" xmlns="http://www.w3.org/2000/svg" xmlns:xlink="http://www.w3.org/1999/xlink" x="0px" y="0px"
	 width="64px" height="64px" viewBox="0 0 64 64" enable-background="new 0 0 64 64" xml:space="preserve">
<g>
	<circle fill="#231F20" cx="28" cy="54" r="2"/>
	<circle fill="#231F20" cx="36" cy="54" r="2"/>
	<path fill="#231F20" d="M40,8H24c-1.105,0-2,0.895-2,2s0.895,2,2,2h16c1.105,0,2-0.895,2-2S41.105,8,40,8z"/>
	<path fill="#231F20" d="M40,16H24c-1.105,0-2,0.895-2,2s0.895,2,2,2h16c1.105,0,2-0.895,2-2S41.105,16,40,16z"/>
	<path fill="#231F20" d="M40,24H24c-1.105,0-2,0.895-2,2s0.895,2,2,2h16c1.105,0,2-0.895,2-2S41.105,24,40,24z"/>
	<path fill="#231F20" d="M48,0H16c-2.211,0-4,1.789-4,4v56c0,2.211,1.789,4,4,4h32c2.211,0,4-1.789,4-4V4C52,1.789,50.211,0,48,0z
		 M48,58c0,1.105-0.895,2-2,2H18c-1.105,0-2-0.895-2-2V6c0-1.105,0.895-2,2-2h28c1.105,0,2,0.895,2,2V58z"/>
</g>
</svg>
