<?xml version="1.0" encoding="utf-8"?>
<!-- Generator: Adobe Illustrator 16.0.0, SVG Export Plug-In . SVG Version: 6.00 Build 0)  -->
<!DOCTYPE svg PUBLIC "-//W3C//DTD SVG 1.0//EN" "http://www.w3.org/TR/2001/REC-SVG-20010904/DTD/svg10.dtd">
<svg version="1.0" id="Layer_1" xmlns="http://www.w3.org/2000/svg" xmlns:xlink="http://www.w3.org/1999/xlink" x="0px" y="0px"
	 width="64px" height="64px" viewBox="0 0 64 64" enable-background="new 0 0 64 64" xml:space="preserve">
<g>
	<path fill="#231F20" d="M60-0.004H4.004c-2.211,0-4,1.789-4,4v25.998c0,1.105,0.895,2,2,2h2V60c0,2.211,1.789,4,4,4H56
		c2.211,0,4-1.789,4-4V31.994h2c1.105,0,2-0.895,2-2V3.996C64,1.785,62.211-0.004,60-0.004z M48.001,3.996v23.998h-7.999V3.996
		H48.001z M36.002,3.996v23.998h-8V3.996H36.002z M24.002,3.996v23.998h-7.999V3.996H24.002z M6.003,3.996h6v23.998H4.004V5.996
		C4.004,4.89,4.898,3.996,6.003,3.996z M16.003,60V39.994h7.999V60H16.003z M56,58c0,1.105-0.894,2-1.999,2H28.002V37.994
		c0-1.105-0.895-2-2-2H14.003c-1.105,0-2,0.895-2,2V60h-2c-1.105,0-2-0.895-2-2V31.994H56V58z M52.001,27.994V3.996H58
		c1.105,0,2,0.894,2,2v21.999H52.001z"/>
	<path fill="#231F20" d="M34.002,56h15.999c1.105,0,2-0.894,2-1.999V37.994c0-1.105-0.895-2-2-2H34.002c-1.105,0-2,0.895-2,2v16.007
		C32.002,55.106,32.896,56,34.002,56z M36.002,39.994h11.999v12.007H36.002V39.994z"/>
</g>
</svg>
