<?xml version="1.0" encoding="utf-8"?>
<!-- Generator: Adobe Illustrator 16.0.0, SVG Export Plug-In . SVG Version: 6.00 Build 0)  -->
<!DOCTYPE svg PUBLIC "-//W3C//DTD SVG 1.0//EN" "http://www.w3.org/TR/2001/REC-SVG-20010904/DTD/svg10.dtd">
<svg version="1.0" id="Layer_1" xmlns="http://www.w3.org/2000/svg" xmlns:xlink="http://www.w3.org/1999/xlink" x="0px" y="0px"
	 width="64px" height="64px" viewBox="0 0 64 64" enable-background="new 0 0 64 64" xml:space="preserve">
<path fill="#231F20" d="M60,0H4C1.789,0,0,1.787,0,4v56c0,2.209,1.789,4,4,4c0,0,11.906,0,16,0s5.094-4.01,5.094-4.01L31,41
	c0,0,0.25-1,1-1c0.812,0,1,1,1,1l5.914,19.014c0,0,1.336,3.986,5.086,3.986s16,0,16,0c2.211,0,4-1.791,4-4V4C64,1.787,62.211,0,60,0
	z M4,12h10v4c0,5.521-4.477,10-10,10V12z M60,58c0,1.104-0.895,2-2,2H44c-0.721,0-1.213-1.078-1.303-1.287l-5.828-18.744
	C36.301,37.615,34.338,36,32,36c-2.611,0-4.297,1.928-4.844,3.885l-5.883,18.918c-0.021,0.072-0.043,0.145-0.061,0.219
	C21.188,59.123,20.941,60,20,60H6c-1.105,0-2-0.896-2-2V30c7.732,0,14-6.27,14-14v-4h28v4c0,7.73,6.268,14,14,14V58z M60,26
	c-5.523,0-10-4.479-10-10v-4h10V26z M60,8H4V5.99c0.006-1.102,0.896-1.986,1.998-1.986H4V4h54.01C59.111,4.004,60,4.895,60,6V8z"/>
</svg>
