<?xml version="1.0" encoding="utf-8"?>
<!-- Generator: Adobe Illustrator 16.0.0, SVG Export Plug-In . SVG Version: 6.00 Build 0)  -->
<!DOCTYPE svg PUBLIC "-//W3C//DTD SVG 1.0//EN" "http://www.w3.org/TR/2001/REC-SVG-20010904/DTD/svg10.dtd">
<svg version="1.0" id="Layer_1" xmlns="http://www.w3.org/2000/svg" xmlns:xlink="http://www.w3.org/1999/xlink" x="0px" y="0px"
	 width="64px" height="64px" viewBox="0 0 64 64" enable-background="new 0 0 64 64" xml:space="preserve">
<g>
	<path fill="#231F20" d="M62,30H50c-1.105,0-2,0.893-2,2c0,1.104,0.895,2,2,2h12c1.105,0,2-0.896,2-2C64,30.893,63.105,30,62,30z"/>
	<path fill="#231F20" d="M48.756,22.932l11.275-4.104c1.039-0.377,1.574-1.523,1.195-2.562c-0.377-1.039-1.523-1.572-2.562-1.195
		l-11.277,4.103c-1.037,0.379-1.572,1.525-1.195,2.564C46.57,22.777,47.717,23.311,48.756,22.932z"/>
	<path fill="#231F20" d="M60.031,45.168l-11.277-4.105c-1.039-0.377-2.184,0.156-2.562,1.195s0.156,2.186,1.195,2.562l11.277,4.105
		c1.039,0.379,2.184-0.156,2.562-1.195S61.07,45.547,60.031,45.168z"/>
	<path fill="#231F20" d="M37.531,0.307c-1.492-0.625-3.211-0.277-4.359,0.867l-14.828,14.83H4c-2.211,0-4,1.787-4,4V44
		c0,2.211,1.789,4,4,4h14.344l14.828,14.828C33.938,63.594,34.961,64,36,64c0.516,0,1.035-0.098,1.531-0.305
		C39.027,63.078,40,61.617,40,60V4.004C40,2.385,39.027,0.924,37.531,0.307z M8,44H6c-1.105,0-2-0.896-2-2V22c0-1.107,0.895-2,2-2h2
		V44z M36,58c0,1.061-0.891,1.607-2,0.5c-1.109-1.111-13.172-13.326-13.172-13.326c-0.75-0.75-1.766-1.17-2.828-1.17L12,44l0,0V20
		l6,0.004c1.062,0,2.078-0.424,2.828-1.172c0,0,11.938-12.099,13.172-13.332c1.234-1.236,2-0.564,2,0.5C36,7.061,36,56.936,36,58z"
		/>
</g>
</svg>
