<?xml version="1.0" encoding="utf-8"?>
<!-- Generator: Adobe Illustrator 16.0.0, SVG Export Plug-In . SVG Version: 6.00 Build 0)  -->
<!DOCTYPE svg PUBLIC "-//W3C//DTD SVG 1.0//EN" "http://www.w3.org/TR/2001/REC-SVG-20010904/DTD/svg10.dtd">
<svg version="1.0" id="Layer_1" xmlns="http://www.w3.org/2000/svg" xmlns:xlink="http://www.w3.org/1999/xlink" x="0px" y="0px"
	 width="64px" height="64px" viewBox="0 0 64 64" enable-background="new 0 0 64 64" xml:space="preserve">
<path fill="#231F20" d="M50.539,63.993c-0.332,0-0.666-0.082-0.969-0.25l-17.571-9.717l-17.572,9.717
	c-0.67,0.373-1.497,0.326-2.122-0.115s-0.945-1.201-0.822-1.955l3.379-20.707L0.568,26.309c-0.523-0.537-0.703-1.32-0.465-2.031
	s0.854-1.229,1.594-1.342l19.676-3.006L30.188,1.15C30.519,0.447,31.224,0,31.999,0s1.48,0.447,1.811,1.15l8.815,18.779L62.3,22.936
	c0.74,0.113,1.355,0.631,1.594,1.342s0.059,1.494-0.465,2.031L49.135,40.966l3.379,20.707c0.123,0.754-0.197,1.514-0.822,1.955
	C51.348,63.87,50.943,63.993,50.539,63.993z M31.999,49.74c0.334,0,0.666,0.084,0.969,0.25l14.935,8.259l-2.879-17.635
	c-0.102-0.627,0.1-1.264,0.543-1.719l12.282-12.595l-16.885-2.578c-0.658-0.1-1.225-0.523-1.508-1.127L31.999,6.708l-7.458,15.888
	c-0.283,0.604-0.85,1.027-1.508,1.127L6.149,26.301l12.283,12.595c0.443,0.455,0.645,1.092,0.543,1.719l-2.879,17.635L31.03,49.99
	C31.333,49.824,31.665,49.74,31.999,49.74z"/>
</svg>
