<?xml version="1.0" encoding="utf-8"?>
<!-- Generator: Adobe Illustrator 16.0.0, SVG Export Plug-In . SVG Version: 6.00 Build 0)  -->
<!DOCTYPE svg PUBLIC "-//W3C//DTD SVG 1.0//EN" "http://www.w3.org/TR/2001/REC-SVG-20010904/DTD/svg10.dtd">
<svg version="1.0" id="Layer_1" xmlns="http://www.w3.org/2000/svg" xmlns:xlink="http://www.w3.org/1999/xlink" x="0px" y="0px"
	 width="64px" height="64px" viewBox="0 0 64 64" enable-background="new 0 0 64 64" xml:space="preserve">
<g>
	<path d="M60.516,17.531C62.633,15.697,64,13.021,64,10c0-5.523-4.477-10-10-10c-3.021,0-5.697,1.367-7.531,3.486
		C42.119,1.275,37.213,0.002,32,0.002S21.881,1.275,17.531,3.486C15.697,1.367,13.021,0,10,0C4.477,0,0,4.477,0,10
		c0,3.021,1.367,5.697,3.484,7.531C1.273,21.879,0,26.789,0,32s1.273,10.121,3.484,14.469C1.367,48.303,0,50.979,0,54
		c0,5.523,4.477,10,10,10c3.021,0,5.697-1.367,7.531-3.486C21.881,62.725,26.787,64,32,64s10.119-1.275,14.469-3.486
		C48.303,62.633,50.979,64,54,64c5.523,0,10-4.477,10-10c0-3.021-1.367-5.697-3.484-7.531C62.727,42.121,64,37.211,64,32
		S62.727,21.879,60.516,17.531z M57.02,19.484C58.812,23.301,60,27.496,60,32s-1.158,8.711-2.98,12.516
		c-1.52,3.172-1.707,2.203,1.428,5.49C59.434,51.041,60,52.461,60,54c0,3.312-2.686,6-6,6c-1.541,0-2.887-0.65-3.994-1.553
		c-3.537-2.885-2.6-2.854-5.49-1.428C40.732,58.887,36.504,60,32,60s-8.627-1.346-12.516-2.98c-3.391-1.426-2.328-1.645-5.49,1.428
		C12.971,59.443,11.541,60,10,60c-3.312,0-6-2.686-6-6c0-1.541,0.541-2.984,1.553-3.994C8.562,47,8.5,47.75,6.98,44.516
		C5.188,40.699,4,36.504,4,32s1.158-8.711,2.98-12.516c1.52-3.172,1.707-2.203-1.428-5.488C4.566,12.959,4,11.539,4,10
		c0-3.312,2.686-6,6-6c1.541,0,2.887,0.65,3.994,1.553c3.537,2.885,2.6,2.854,5.49,1.428C23.268,5.113,27.496,4.002,32,4.002
		s8.627,1.344,12.516,2.979c3.391,1.426,2.328,1.645,5.49-1.428C51.029,4.557,52.459,4,54,4c3.312,0,6,2.686,6,6
		c0,1.541-0.541,2.984-1.553,3.996C55.438,17,55.5,16.25,57.02,19.484z"/>
	<circle cx="54" cy="54" r="2"/>
	<circle cx="10" cy="54" r="2"/>
	<circle cx="54" cy="10" r="2"/>
	<circle cx="10" cy="10" r="2"/>
	<path d="M32,12c-11.045,0-20,8.953-20,20s8.955,20,20,20s20-8.953,20-20S43.045,12,32,12z M32,48c-8.836,0-16-7.164-16-16
		s7.164-16,16-16s16,7.164,16,16S40.836,48,32,48z"/>
	<circle cx="32" cy="32" r="4"/>
</g>
</svg>
