<?xml version="1.0" encoding="utf-8"?>
<!-- Generator: Adobe Illustrator 16.0.0, SVG Export Plug-In . SVG Version: 6.00 Build 0)  -->
<!DOCTYPE svg PUBLIC "-//W3C//DTD SVG 1.0//EN" "http://www.w3.org/TR/2001/REC-SVG-20010904/DTD/svg10.dtd">
<svg version="1.0" id="Layer_1" xmlns="http://www.w3.org/2000/svg" xmlns:xlink="http://www.w3.org/1999/xlink" x="0px" y="0px"
	 width="64px" height="64px" viewBox="0 0 64 64" enable-background="new 0 0 64 64" xml:space="preserve">
<g>
	<path fill-rule="evenodd" clip-rule="evenodd" fill="#231F20" d="M12,32.003c0-1.105-0.895-2-2-2H2c-1.105,0-2,0.895-2,2
		s0.895,2,2,2h8C11.105,34.003,12,33.108,12,32.003z"/>
	<path fill-rule="evenodd" clip-rule="evenodd" fill="#231F20" d="M10.591,43.036l1.848-0.766c1.021-0.424,1.506-1.592,1.084-2.611
		c-0.424-1.023-1.594-1.508-2.613-1.082l-1.848,0.764c-1.021,0.422-1.507,1.59-1.083,2.611C8.402,42.974,9.57,43.458,10.591,43.036z
		"/>
	<path fill-rule="evenodd" clip-rule="evenodd" fill="#231F20" d="M24.349,50.48c-1.021-0.424-2.193,0.061-2.613,1.082L20.97,53.41
		c-0.424,1.021,0.059,2.191,1.08,2.611c1.021,0.424,2.191-0.059,2.615-1.08l0.764-1.846C25.851,52.072,25.368,50.902,24.349,50.48z"
		/>
	<path fill-rule="evenodd" clip-rule="evenodd" fill="#231F20" d="M42.269,51.564c-0.422-1.023-1.594-1.508-2.613-1.086
		s-1.508,1.594-1.082,2.613l0.766,1.848c0.424,1.021,1.59,1.508,2.609,1.082c1.023-0.422,1.508-1.59,1.086-2.613L42.269,51.564z"/>
	<path fill-rule="evenodd" clip-rule="evenodd" fill="#231F20" d="M54.939,39.335l-1.844-0.762
		c-1.023-0.426-2.195,0.062-2.617,1.082c-0.424,1.02,0.062,2.191,1.082,2.613l1.848,0.766c1.023,0.422,2.191-0.059,2.609-1.082
		C56.445,40.931,55.963,39.761,54.939,39.335z"/>
	<path fill-rule="evenodd" clip-rule="evenodd" fill="#231F20" d="M53.406,20.966l-1.842,0.764
		c-1.025,0.424-1.508,1.598-1.086,2.617c0.418,1.02,1.594,1.504,2.613,1.082l1.848-0.766c1.021-0.422,1.508-1.59,1.078-2.609
		C55.6,21.03,54.432,20.542,53.406,20.966z"/>
	<path fill-rule="evenodd" clip-rule="evenodd" fill="#231F20" d="M39.655,13.523c1.016,0.426,2.189-0.064,2.611-1.084l0.766-1.848
		c0.424-1.021-0.057-2.189-1.084-2.607c-1.018-0.428-2.189,0.053-2.613,1.078l-0.764,1.842
		C38.147,11.929,38.636,13.101,39.655,13.523z"/>
	<path fill-rule="evenodd" clip-rule="evenodd" fill="#231F20" d="M21.729,12.437c0.426,1.023,1.598,1.508,2.617,1.086
		c1.02-0.418,1.504-1.594,1.078-2.613l-0.764-1.85c-0.42-1.021-1.588-1.505-2.611-1.076c-1.02,0.417-1.508,1.585-1.082,2.609
		L21.729,12.437z"/>
	<path fill-rule="evenodd" clip-rule="evenodd" fill="#231F20" d="M9.062,24.663l1.844,0.766c1.023,0.422,2.195-0.062,2.617-1.082
		c0.426-1.016-0.062-2.191-1.086-2.609l-1.848-0.77c-1.02-0.426-2.188,0.059-2.609,1.086C7.559,23.069,8.039,24.241,9.062,24.663z"
		/>
	<path fill-rule="evenodd" clip-rule="evenodd" fill="#231F20" d="M15.031,46.144l-5.658,5.657c-0.781,0.783-0.781,2.047,0,2.828
		c0.783,0.783,2.049,0.783,2.83,0.002l5.656-5.656c0.781-0.781,0.781-2.046,0-2.831C17.077,45.362,15.812,45.362,15.031,46.144z"/>
	<path fill-rule="evenodd" clip-rule="evenodd" fill="#231F20" d="M32.001,52.002c-1.105,0-2,0.893-2,2l-0.002,8
		c0,1.105,0.895,2,2,2c1.109,0,2.004-0.895,2.004-2v-8C34.003,52.896,33.108,52.002,32.001,52.002z"/>
	<path fill-rule="evenodd" clip-rule="evenodd" fill="#231F20" d="M48.973,46.142c-0.781-0.781-2.046-0.781-2.829,0.002
		c-0.781,0.781-0.783,2.044,0,2.827l5.655,5.66c0.781,0.781,2.047,0.781,2.828,0c0.785-0.785,0.785-2.051,0.004-2.832L48.973,46.142
		z"/>
	<path fill-rule="evenodd" clip-rule="evenodd" fill="#231F20" d="M62.002,29.999H54c-1.105,0-2,0.893-2,2.004
		c0.002,1.102,0.893,1.996,2,2h8.002c1.105,0,2-0.895,2-2C64.002,30.894,63.107,29.999,62.002,29.999z"/>
	<path fill-rule="evenodd" clip-rule="evenodd" fill="#231F20" d="M48.971,17.858l5.66-5.656c0.781-0.781,0.781-2.047-0.002-2.83
		s-2.049-0.783-2.83-0.002l-5.659,5.656c-0.781,0.781-0.781,2.046,0.004,2.832C46.925,18.636,48.186,18.64,48.971,17.858z"/>
	<path fill-rule="evenodd" clip-rule="evenodd" fill="#231F20" d="M32.001,12.003c1.102-0.004,1.996-0.896,2-2L34.003,2
		c0-1.105-0.895-2-2.004-2c-1.105,0-2,0.895-2,2l-0.004,8C29.995,11.105,30.89,12,32.001,12.003z"/>
	<path fill-rule="evenodd" clip-rule="evenodd" fill="#231F20" d="M15.025,17.86c0.781,0.781,2.044,0.783,2.833-0.002
		c0.777-0.781,0.777-2.042,0-2.828l-5.656-5.66c-0.781-0.781-2.047-0.781-2.832,0.004c-0.781,0.781-0.781,2.047,0,2.828
		L15.025,17.86z"/>
	<path fill-rule="evenodd" clip-rule="evenodd" fill="#231F20" d="M31.999,14.003c-9.941,0-18,8.058-18,18s8.058,17.999,18,17.999
		s17.999-8.058,17.999-17.999S41.94,14.003,31.999,14.003z M31.999,46.003c-7.732,0-14-6.268-14-14s6.268-14,14-14s14,6.268,14,14
		S39.731,46.003,31.999,46.003z"/>
</g>
</svg>
