<?xml version="1.0" encoding="utf-8"?>
<!-- Generator: Adobe Illustrator 16.0.0, SVG Export Plug-In . SVG Version: 6.00 Build 0)  -->
<!DOCTYPE svg PUBLIC "-//W3C//DTD SVG 1.0//EN" "http://www.w3.org/TR/2001/REC-SVG-20010904/DTD/svg10.dtd">
<svg version="1.0" id="Layer_1" xmlns="http://www.w3.org/2000/svg" xmlns:xlink="http://www.w3.org/1999/xlink" x="0px" y="0px"
	 width="64px" height="64px" viewBox="0 0 64 64" enable-background="new 0 0 64 64" xml:space="preserve">
<path fill="#231F20" d="M60,0H43c-2.125,0-2.549,1.383-3.01,2C38.168,4.426,35.27,6,32,6s-6.166-1.574-7.99-4
	C23.549,1.381,23.156,0,21,0H4C1.789,0,0,1.787,0,4v12c0,2.209,1.789,4,4,4h8v40c0,2.209,1.789,4,4,4h32c2.211,0,4-1.791,4-4V19.994
	h8c2.211,0,4-1.789,4-4v-12C64,1.783,62.211,0,60,0z M48,58c0,1.104-0.895,2-2,2H18c-1.105,0-2-0.896-2-2v-2h32V58z M60,14
	c0,1.096-0.885,1.982-1.98,1.994H52c-2.209,0-4,1.791-4,4V52H16V20c0-2.211-1.791-4-4-4H6c-1.105,0-2-0.896-2-2V6
	c0-1.107,0.895-2,2-2h13c1.531,0,1.988,0.639,2.24,0.941C23.859,8.096,27.777,10,32,10c4.246,0,8.186-1.924,10.805-5.109
	C43.041,4.604,43.469,4,45,4h13c1.105,0,2,0.893,2,2V14z"/>
</svg>
