<?xml version="1.0" encoding="utf-8"?>
<!-- Generator: Adobe Illustrator 16.0.0, SVG Export Plug-In . SVG Version: 6.00 Build 0)  -->
<!DOCTYPE svg PUBLIC "-//W3C//DTD SVG 1.0//EN" "http://www.w3.org/TR/2001/REC-SVG-20010904/DTD/svg10.dtd">
<svg version="1.0" id="Layer_1" xmlns="http://www.w3.org/2000/svg" xmlns:xlink="http://www.w3.org/1999/xlink" x="0px" y="0px"
	 width="64px" height="64px" viewBox="0 0 64 64" enable-background="new 0 0 64 64" xml:space="preserve">
<path fill="#231F20" d="M32,0c-8.117,0-15.504,3.047-21.146,8.025L10,7.172V2c0-1.105-0.895-2-2-2S6,0.895,6,2v4H2
	C0.895,6,0,6.895,0,8s0.895,2,2,2h5.172l0.854,0.854C3.047,16.496,0,23.883,0,32c0,17.672,14.326,32,32,32s32-14.328,32-32
	C64,14.326,49.674,0,32,0z M32,60C16.535,60,4,47.465,4,32c0-7.012,2.596-13.406,6.854-18.318l5.664,5.664
	C13.695,22.793,12,27.197,12,32c0,11.047,8.955,20,20,20s20-8.953,20-20s-8.955-20-20-20c-4.803,0-9.207,1.695-12.654,4.516
	l-5.664-5.662C18.594,6.596,24.988,4,32,4c15.465,0,28,12.535,28,28S47.465,60,32,60z M25.131,27.961C24.43,29.148,24,30.52,24,32
	c0,4.418,3.582,8,8,8s8-3.582,8-8s-3.582-8-8-8c-1.48,0-2.852,0.43-4.041,1.133l-5.76-5.762C24.91,17.266,28.303,16,32,16
	c8.836,0,16,7.164,16,16s-7.164,16-16,16s-16-7.164-16-16c0-3.697,1.266-7.09,3.371-9.801L25.131,27.961z M30.586,33.414
	c0.781,0.781,2.047,0.781,2.828,0s0.781-2.047,0-2.828l-2.438-2.438C31.305,28.062,31.645,28,32,28c2.209,0,4,1.791,4,4
	s-1.791,4-4,4s-4-1.791-4-4c0-0.355,0.061-0.695,0.148-1.023L30.586,33.414z"/>
</svg>
