<?xml version="1.0" encoding="utf-8"?>
<!-- Generator: Adobe Illustrator 16.0.0, SVG Export Plug-In . SVG Version: 6.00 Build 0)  -->
<!DOCTYPE svg PUBLIC "-//W3C//DTD SVG 1.0//EN" "http://www.w3.org/TR/2001/REC-SVG-20010904/DTD/svg10.dtd">
<svg version="1.0" id="Layer_1" xmlns="http://www.w3.org/2000/svg" xmlns:xlink="http://www.w3.org/1999/xlink" x="0px" y="0px"
	 width="64px" height="64px" viewBox="0 0 64 64" enable-background="new 0 0 64 64" xml:space="preserve">
<g>
	<path fill="#231F20" d="M62,60H14c-1.105,0-2,0.895-2,2s0.895,2,2,2h48c1.105,0,2-0.895,2-2S63.105,60,62,60z"/>
	<path fill="#231F20" d="M62,20H4c-2.211,0-4,1.789-4,4v8c0,6.627,5.373,12,12,12h4v-0.188C20.602,51.125,28.723,56,38,56
		c14.359,0,26-11.641,26-26v-8C64,20.895,63.105,20,62,20z M12,40c-4.418,0-8-3.582-8-8v-6c0-1.105,0.895-2,2-2h6v6
		c0,3.545,0.715,6.922,2,10H12z M60,30c0,12.15-9.85,22-22,22s-22-9.85-22-22v-6h44V30z"/>
	<path fill="#231F20" d="M38,16c1.105,0,2-0.895,2-2V2c0-1.105-0.895-2-2-2s-2,0.895-2,2v12C36,15.105,36.895,16,38,16z"/>
	<path fill="#231F20" d="M26,16c1.105,0,2-0.895,2-2V6c0-1.105-0.895-2-2-2s-2,0.895-2,2v8C24,15.105,24.895,16,26,16z"/>
	<path fill="#231F20" d="M50,16c1.105,0,2-0.895,2-2v-4c0-1.105-0.895-2-2-2s-2,0.895-2,2v4C48,15.105,48.895,16,50,16z"/>
</g>
</svg>
