<?xml version="1.0" encoding="utf-8"?>
<!-- Generator: Adobe Illustrator 16.0.0, SVG Export Plug-In . SVG Version: 6.00 Build 0)  -->
<!DOCTYPE svg PUBLIC "-//W3C//DTD SVG 1.0//EN" "http://www.w3.org/TR/2001/REC-SVG-20010904/DTD/svg10.dtd">
<svg version="1.0" id="Layer_1" xmlns="http://www.w3.org/2000/svg" xmlns:xlink="http://www.w3.org/1999/xlink" x="0px" y="0px"
	 width="64px" height="64px" viewBox="0 0 64 64" enable-background="new 0 0 64 64" xml:space="preserve">
<g>
	<path fill="#231F20" d="M8.007,24h-8v40h8c2.211,0,4-1.791,4-4V28C12.007,25.787,10.218,24,8.007,24z M8.007,58
		c0,1.104-0.895,2-2,2h-2V28h2c1.105,0,2,0.893,2,2V58z"/>
	<path fill="#231F20" d="M63.897,28.439C64.476,25.5,62.538,24,60.007,24h-16V4c0-2.213-1.789-4-4-4h-6c-2.211,0-3.262,1.686-4,4
		l-5.455,20h-0.545c-4.418,0-8,3.58-8,8v24h0.008h-0.008c0,4.418,3.582,8,8,8l0,0h27.5c2.5,0,3.812-1.408,4.5-4L63.897,28.439z
		 M49.632,60H24.007l0,0c-2.209,0-4-1.791-4-4V32c0-2.211,1.791-4,4-4h1.719c1.281,0,1.984-0.955,2.281-2l6-20
		c0.314-1.076,1-2,2.406-2h1.594c1.105,0,2,0.893,2,2v20c0,1.104,0.895,2,2,2h16c1.469,0,1.812,0.904,1.5,2l-1.072,4h-2.428
		c-1.105,0-2,0.893-2,2c0,1.104,0.895,2,2,2h1.357l-1.072,4h-2.285c-1.105,0-2,0.893-2,2c0,1.104,0.895,2,2,2h1.215l-1.072,4h-2.143
		c-1.105,0-2,0.893-2,2c0,1.104,0.895,2,2,2h1.072l-1.072,4C51.636,59.156,50.737,60,49.632,60z"/>
</g>
</svg>
