<?xml version="1.0" encoding="utf-8"?>
<!-- Generator: Adobe Illustrator 16.0.0, SVG Export Plug-In . SVG Version: 6.00 Build 0)  -->
<!DOCTYPE svg PUBLIC "-//W3C//DTD SVG 1.0//EN" "http://www.w3.org/TR/2001/REC-SVG-20010904/DTD/svg10.dtd">
<svg version="1.0" id="Layer_1" xmlns="http://www.w3.org/2000/svg" xmlns:xlink="http://www.w3.org/1999/xlink" x="0px" y="0px"
	 width="64px" height="64px" viewBox="0 0 64 64" enable-background="new 0 0 64 64" xml:space="preserve">
<g>
	<path fill="#231F20" d="M8,40H0V0h8c2.211,0,4,1.791,4,4v32C12,38.213,10.211,40,8,40z M8,6c0-1.104-0.895-2-2-2H4v32h2
		c1.105,0,2-0.893,2-2V6z"/>
	<path fill="#231F20" d="M63.891,35.561C64.469,38.5,62.531,40,60,40H44v20c0,2.213-1.789,4-4,4h-6c-2.211,0-3.262-1.686-4-4
		l-5.455-20H24c-4.418,0-8-3.58-8-8V8h0.008H16c0-4.418,3.582-8,8-8l0,0h27.5C54,0,55.312,1.408,56,4L63.891,35.561z M49.625,4H24
		l0,0c-2.209,0-4,1.791-4,4v24c0,2.211,1.791,4,4,4h1.719C27,36,27.703,36.955,28,38l6,20c0.314,1.076,1,2,2.406,2H38
		c1.105,0,2-0.893,2-2V38c0-1.104,0.895-2,2-2h16c1.469,0,1.812-0.904,1.5-2l-1.072-4H56c-1.105,0-2-0.893-2-2c0-1.104,0.895-2,2-2
		h1.357l-1.072-4H54c-1.105,0-2-0.893-2-2c0-1.104,0.895-2,2-2h1.215l-1.072-4H52c-1.105,0-2-0.893-2-2c0-1.104,0.895-2,2-2h1.072
		L52,6C51.629,4.844,50.73,4,49.625,4z"/>
</g>
</svg>
