<?xml version="1.0" encoding="utf-8"?>
<!-- Generator: Adobe Illustrator 16.0.0, SVG Export Plug-In . SVG Version: 6.00 Build 0)  -->
<!DOCTYPE svg PUBLIC "-//W3C//DTD SVG 1.0//EN" "http://www.w3.org/TR/2001/REC-SVG-20010904/DTD/svg10.dtd">
<svg version="1.0" id="Layer_1" xmlns="http://www.w3.org/2000/svg" xmlns:xlink="http://www.w3.org/1999/xlink" x="0px" y="0px"
	 width="64px" height="64px" viewBox="0 0 64 64" enable-background="new 0 0 64 64" xml:space="preserve">
<g>
	<path fill="#231F20" d="M56,4H40c0-2.209-1.791-4-4-4h-8c-2.209,0-4,1.791-4,4H8C5.789,4,4,5.789,4,8v8c0,1.105,0.895,2,2,2h2v42
		c0,2.211,1.789,4,4,4h40c2.211,0,4-1.789,4-4V18h2c1.105,0,2-0.895,2-2V8C60,5.789,58.211,4,56,4z M52,58c0,1.105-0.895,2-2,2H14
		c-1.105,0-2-0.895-2-2V18h40V58z M8,14v-4c0-1.105,0.895-2,2-2h18V6c0-1.105,0.895-2,2-2h4c1.105,0,2,0.895,2,2v2h18
		c1.105,0,2,0.895,2,2v4H8z"/>
	<path fill="#231F20" d="M26,50c1.105,0,2-0.895,2-2V30c0-1.105-0.895-2-2-2s-2,0.895-2,2v18C24,49.105,24.895,50,26,50z"/>
	<path fill="#231F20" d="M38,50c1.105,0,2-0.895,2-2V30c0-1.105-0.895-2-2-2s-2,0.895-2,2v18C36,49.105,36.895,50,38,50z"/>
</g>
</svg>
