<?xml version="1.0" encoding="utf-8"?>
<!-- Generator: Adobe Illustrator 16.0.0, SVG Export Plug-In . SVG Version: 6.00 Build 0)  -->
<!DOCTYPE svg PUBLIC "-//W3C//DTD SVG 1.0//EN" "http://www.w3.org/TR/2001/REC-SVG-20010904/DTD/svg10.dtd">
<svg version="1.0" id="Layer_1" xmlns="http://www.w3.org/2000/svg" xmlns:xlink="http://www.w3.org/1999/xlink" x="0px" y="0px"
	 width="64px" height="64px" viewBox="0 0 64 64" enable-background="new 0 0 64 64" xml:space="preserve">
<path fill="#231F20" d="M55.818,49.166l-22-48C33.492,0.455,32.781,0,32,0s-1.492,0.455-1.818,1.166l-22,48
	c-0.283,0.619-0.232,1.342,0.135,1.914C8.686,51.654,9.318,52,10,52h16v10c0,1.105,0.895,2,2,2h8c1.105,0,2-0.895,2-2V52h16
	c0.682,0,1.314-0.346,1.684-0.92C56.051,50.508,56.102,49.785,55.818,49.166z M32,6.801L39.883,24H24.117L32,6.801z M22.283,28
	h19.434l3.666,8H18.617L22.283,28z M34,60h-4v-8h4V60z M13.117,48l3.666-8h30.434l3.666,8H13.117z"/>
</svg>
