<?xml version="1.0" encoding="utf-8"?>
<!-- Generator: Adobe Illustrator 16.0.0, SVG Export Plug-In . SVG Version: 6.00 Build 0)  -->
<!DOCTYPE svg PUBLIC "-//W3C//DTD SVG 1.0//EN" "http://www.w3.org/TR/2001/REC-SVG-20010904/DTD/svg10.dtd">
<svg version="1.0" id="Layer_1" xmlns="http://www.w3.org/2000/svg" xmlns:xlink="http://www.w3.org/1999/xlink" x="0px" y="0px"
	 width="64px" height="64px" viewBox="0 0 64 64" enable-background="new 0 0 64 64" xml:space="preserve">
<g>
	<path fill="#231F20" d="M32,0C18.684,0,12,20.516,12,32c0,8.938,5.895,16.523,14,19.078V62c0,1.105,0.895,2,2,2h8
		c1.105,0,2-0.895,2-2V51.078C46.105,48.523,52,40.938,52,32C52,20.516,45.316,0,32,0z M34,60h-4v-8.102
		C30.658,51.965,31.324,52,32,52s1.342-0.035,2-0.102V60z M34,47.861v-3.033l7.902-7.898c0.781-0.781,0.781-2.047,0-2.828
		c-0.783-0.783-2.047-0.781-2.828,0L34,39.172V30c0-1.105-0.895-2-2-2s-2,0.895-2,2v9.172l-5.07-5.074
		c-0.781-0.781-2.047-0.781-2.828,0c-0.783,0.783-0.781,2.047,0,2.828L30,44.828v3.033C22.121,46.871,16,40.145,16,32
		c0-9.504,5.646-28,16-28s16,18.496,16,28C48,40.145,41.879,46.871,34,47.861z"/>
</g>
</svg>
