<?xml version="1.0" encoding="utf-8"?>
<!-- Generator: Adobe Illustrator 16.0.0, SVG Export Plug-In . SVG Version: 6.00 Build 0)  -->
<!DOCTYPE svg PUBLIC "-//W3C//DTD SVG 1.0//EN" "http://www.w3.org/TR/2001/REC-SVG-20010904/DTD/svg10.dtd">
<svg version="1.0" id="Layer_1" xmlns="http://www.w3.org/2000/svg" xmlns:xlink="http://www.w3.org/1999/xlink" x="0px" y="0px"
	 width="64px" height="64px" viewBox="0 0 64 64" enable-background="new 0 0 64 64" xml:space="preserve">
<path fill="#231F20" d="M34,2.098V2c0-1.105-0.895-2-2-2s-2,0.895-2,2v0.098C13.922,3.094,0.996,15.93,0,32c0,1.105,0,2,2,2
	s3.062-0.188,3.996-1.242C7.455,31.074,9.594,30,12,30c2.953,0,5.504,1.619,6.891,4c0,0,0.828,2,3.109,2s3.109-2,3.109-2
	c1.061-1.822,2.807-3.191,4.891-3.736V58c0,3.312,2.686,6,6,6s6-2.688,6-6c0-1.105-0.895-2-2-2s-2,0.895-2,2s-0.895,2-2,2
	s-2-0.895-2-2V30.264c2.084,0.545,3.83,1.914,4.891,3.736c0,0,0.828,2,3.109,2s3.109-2,3.109-2c1.387-2.381,3.938-4,6.891-4
	c2.406,0,4.545,1.074,6.004,2.758C58.938,33.812,60,34,62,34s2-0.895,2-2C63.004,15.93,50.078,3.094,34,2.098z M52,26
	c-4.176,0-7.852,2.135-10,5.371C39.852,28.135,36.176,26,32,26s-7.852,2.135-10,5.371C19.852,28.135,16.176,26,12,26
	c-2.84,0-5.426,1.012-7.479,2.664C7.016,15.754,18.361,6,32,6s24.984,9.754,27.479,22.664C57.426,27.012,54.84,26,52,26z"/>
</svg>
