<?xml version="1.0" encoding="utf-8"?>
<!-- Generator: Adobe Illustrator 16.0.0, SVG Export Plug-In . SVG Version: 6.00 Build 0)  -->
<!DOCTYPE svg PUBLIC "-//W3C//DTD SVG 1.0//EN" "http://www.w3.org/TR/2001/REC-SVG-20010904/DTD/svg10.dtd">
<svg version="1.0" id="Layer_1" xmlns="http://www.w3.org/2000/svg" xmlns:xlink="http://www.w3.org/1999/xlink" x="0px" y="0px"
	 width="64px" height="64px" viewBox="0 0 64 64" enable-background="new 0 0 64 64" xml:space="preserve">
<g>
	<path fill="#231F20" d="M62,28h-2V8c0-4.418-3.582-7.994-8-8v0.002H8c-4.418,0-7.998,3.58-8,7.998v52c0,2.211,1.789,4,4,4h52
		c2.211,0,4-1.789,4-4V44h2c1.105,0,2-0.895,2-2V30C64,28.895,63.105,28,62,28z M8,4.002h44V4c2.207,0.006,4,1.793,4,4H4
		C4.002,5.793,5.791,4.002,8,4.002z M56,58c0,1.105-0.895,2-2,2H6c-1.105,0-2-0.895-2-2V14c0-1.105,0.895-2,2-2h48
		c1.105,0,2,0.895,2,2v14H40c-1.105,0-2,0.895-2,2v12c0,1.105,0.895,2,2,2h16V58z M60,40H42v-8h18V40z"/>
	<circle fill="#231F20" cx="46" cy="36" r="2"/>
</g>
</svg>
