<?xml version="1.0" encoding="utf-8"?>
<!-- Generator: Adobe Illustrator 16.0.0, SVG Export Plug-In . SVG Version: 6.00 Build 0)  -->
<!DOCTYPE svg PUBLIC "-//W3C//DTD SVG 1.0//EN" "http://www.w3.org/TR/2001/REC-SVG-20010904/DTD/svg10.dtd">
<svg version="1.0" id="Layer_1" xmlns="http://www.w3.org/2000/svg" xmlns:xlink="http://www.w3.org/1999/xlink" x="0px" y="0px"
	 width="64px" height="64px" viewBox="0 0 64 64" enable-background="new 0 0 64 64" xml:space="preserve">
<g>
	<path fill="#231F20" d="M60,47.51c-2.543-1.473-5.225-2.725-8-3.789V20C52,8.953,43.047,0,32,0S12,8.953,12,20v23.721
		c-2.775,1.064-5.457,2.316-8,3.789c0,0-4,1.959-4,5.49v7c0,2.211,1.789,4,4,4h56c2.211,0,4-1.789,4-4v-7
		C64,49.312,60,47.51,60,47.51z M16,20c0-8.838,7.162-16,16-16s16,7.162,16,16v22.357C42.928,40.842,37.564,40,32,40
		s-10.928,0.842-16,2.357V20z M41.16,44.838l-7.746,7.746c-0.781,0.781-2.047,0.781-2.828,0l-7.746-7.748
		C25.816,44.305,28.871,44,32,44S38.184,44.307,41.16,44.838z M60,58c0,1.105-0.895,2-2,2H6c-1.105,0-2-0.895-2-2v-4
		c0-2,1-2.436,1.508-2.738c3.93-2.334,8.193-4.16,12.699-5.4l10.965,10.965c1.562,1.564,4.094,1.564,5.656,0l10.963-10.963
		c4.539,1.25,8.832,3.094,12.785,5.449C59.057,51.598,60,52,60,54V58z"/>
	<path fill="#231F20" d="M44,24v-8c0-1.105-0.895-2-2-2H22c-1.105,0-2,0.895-2,2v8c0,6.627,5.373,14,12,14S44,30.627,44,24z M24,24
		v-6h16v6c0,4.418-3.582,10-8,10S24,28.418,24,24z"/>
</g>
</svg>
