<?xml version="1.0" encoding="utf-8"?>
<!-- Generator: Adobe Illustrator 16.0.0, SVG Export Plug-In . SVG Version: 6.00 Build 0)  -->
<!DOCTYPE svg PUBLIC "-//W3C//DTD SVG 1.0//EN" "http://www.w3.org/TR/2001/REC-SVG-20010904/DTD/svg10.dtd">
<svg version="1.0" id="Layer_1" xmlns="http://www.w3.org/2000/svg" xmlns:xlink="http://www.w3.org/1999/xlink" x="0px" y="0px"
	 width="64px" height="64px" viewBox="0 0 64 64" enable-background="new 0 0 64 64" xml:space="preserve">
<path fill="#231F20" d="M63.303,14.84c-0.762-3.297-2.33-3.328-4.57-1.086S48.244,24.242,48.244,24.242
	c-2.344,2.344-6.145,2.344-8.484,0c-2.344-2.34-2.344-6.141,0-8.484c0,0,8.314-8.316,10.49-10.49s2.332-3.641-1.09-4.57
	C47.514,0.25,45.787,0.001,44,0.001C32.956,0.001,24.001,8.954,24.001,20c0,1.787,0.256,3.512,0.697,5.16L2.927,46.93
	c-3.904,3.904-3.904,10.236,0.002,14.143s10.236,3.904,14.143-0.002l21.767-21.768C40.488,39.742,42.211,40,44,40
	c11.045,0,20-8.953,20-20C64,18.211,63.688,16.504,63.303,14.84z M14.243,58.242c-2.344,2.344-6.145,2.344-8.484,0
	c-2.344-2.34-2.344-6.141,0-8.484l20.516-20.516c1.895,3.625,4.861,6.59,8.484,8.484L14.243,58.242z M44,36
	c-8.835,0-15.999-7.164-15.999-16c0-8.835,7.164-16,15.999-16c0.594,0,1.18,0.039,1.756,0.102l-8.828,8.828
	c-3.903,3.904-3.903,10.236,0.002,14.142c3.906,3.906,10.236,3.904,14.143-0.002l8.826-8.826C59.963,18.82,60,19.406,60,20
	C60,28.836,52.836,36,44,36z"/>
</svg>
